<?xml version="1.0" encoding="UTF-8"?>
<!DOCTYPE svg PUBLIC "-//W3C//DTD SVG 1.1//EN" "http://www.w3.org/Graphics/SVG/1.1/DTD/svg11.dtd">
<svg xmlns="http://www.w3.org/2000/svg" version="1.1" width="150px" height="150px" style="shape-rendering:geometricPrecision; text-rendering:geometricPrecision; image-rendering:optimizeQuality; fill-rule:evenodd; clip-rule:evenodd" xmlns:xlink="http://www.w3.org/1999/xlink">
<g><path style="opacity:0.909" fill="#fdfdfd" d="M 61.5,-0.5 C 64.8333,-0.5 68.1667,-0.5 71.5,-0.5C 73.7103,3.25547 76.0436,3.25547 78.5,-0.5C 81.5,-0.5 84.5,-0.5 87.5,-0.5C 90.3034,2.41669 92.6367,5.75002 94.5,9.5C 99.3461,4.77946 104.679,3.94613 110.5,7C 113.077,10.7519 114.077,14.9186 113.5,19.5C 128.338,15.1723 133.671,20.339 129.5,35C 144.939,35.8771 148.272,42.5437 139.5,55C 143.34,56.418 146.674,58.5847 149.5,61.5C 149.5,64.8333 149.5,68.1667 149.5,71.5C 145.5,73.5 145.5,75.5 149.5,77.5C 149.5,81.1667 149.5,84.8333 149.5,88.5C 146.644,91.0967 143.311,92.9301 139.5,94C 148.678,106.694 145.345,113.527 129.5,114.5C 133.872,123.749 131.206,129.749 121.5,132.5C 118.833,131.877 116.333,130.877 114,129.5C 115.197,139.964 110.697,144.798 100.5,144C 97.8976,143.117 95.7309,141.617 94,139.5C 92.9301,143.311 91.0967,146.644 88.5,149.5C 84.5,149.5 80.5,149.5 76.5,149.5C 75.1667,146.833 73.8333,146.833 72.5,149.5C 68.5,149.5 64.5,149.5 60.5,149.5C 58.139,146.114 56.4723,142.781 55.5,139.5C 45.4911,147.714 38.4911,145.714 34.5,133.5C 35.4279,132.232 35.5946,130.899 35,129.5C 26.4944,134.443 20.6611,132.277 17.5,123C 17.9773,120.112 18.6439,117.279 19.5,114.5C 15.8634,114.513 12.1967,113.68 8.5,112C 3.10333,105.515 3.77,99.5152 10.5,94C 6.25859,93.2127 2.59192,91.3793 -0.5,88.5C -0.5,84.8333 -0.5,81.1667 -0.5,77.5C 3.11391,75.7025 3.11391,73.7025 -0.5,71.5C -0.5,68.1667 -0.5,64.8333 -0.5,61.5C 2.32648,58.5847 5.65981,56.418 9.5,55C 1.99477,47.2047 2.99477,40.8713 12.5,36C 15.3315,35.7879 17.9982,35.6213 20.5,35.5C 15.3665,26.5647 17.6998,20.5647 27.5,17.5C 30.3258,17.8245 32.8258,18.8245 35,20.5C 35.9109,17.3667 36.2443,14.3667 36,11.5C 41.2432,3.03994 47.4099,2.37327 54.5,9.5C 56.3266,5.85943 58.6599,2.5261 61.5,-0.5 Z M 63.5,3.5 C 66.6516,2.95855 69.1516,3.95855 71,6.5C 72.3674,10.6996 72.8674,15.0329 72.5,19.5C 69.1165,19.3396 65.7831,19.673 62.5,20.5C 61.09,20.1322 60.09,19.2989 59.5,18C 59.9871,12.9015 61.3204,8.0682 63.5,3.5 Z M 80.5,3.5 C 84.4196,3.04281 86.9196,4.70947 88,8.5C 89.6961,12.4618 89.8628,16.4618 88.5,20.5C 84.9184,19.7343 81.4184,19.7343 78,20.5C 77.3333,15.8333 77.3333,11.1667 78,6.5C 79.045,5.62656 79.8783,4.62656 80.5,3.5 Z M 44.5,9.5 C 47.09,10.1283 49.4234,11.295 51.5,13C 53.2567,15.8456 55.2567,18.5122 57.5,21C 52.6715,22.9399 48.1715,25.4399 44,28.5C 40.8709,23.0292 40.2043,17.3625 42,11.5C 42.9947,10.9341 43.828,10.2674 44.5,9.5 Z M 103.5,9.5 C 107.594,10.6027 109.261,13.2694 108.5,17.5C 108.217,21.7393 107.05,25.7393 105,29.5C 101.088,26.4591 96.9211,23.7924 92.5,21.5C 94.8289,16.1752 98.4956,12.1752 103.5,9.5 Z M 120.5,22.5 C 124.176,22.3192 126.176,23.9858 126.5,27.5C 125.908,33.3512 123.241,38.0178 118.5,41.5C 115.314,37.4804 111.647,33.9804 107.5,31C 111.249,27.1349 115.582,24.3016 120.5,22.5 Z M 24.5,23.5 C 31.3012,22.569 36.6346,24.9023 40.5,30.5C 36.4804,33.6859 32.9804,37.3525 30,41.5C 27.417,38.0026 25.0836,34.3359 23,30.5C 22.1668,27.829 22.6668,25.4957 24.5,23.5 Z M 13.5,40.5 C 16.8738,40.6744 20.2072,41.1744 23.5,42C 25.2861,42.1962 26.6195,43.0295 27.5,44.5C 24.8061,48.5545 22.6394,52.8878 21,57.5C 16,55.1667 12.3333,51.5 10,46.5C 9.65064,43.6695 10.8173,41.6695 13.5,40.5 Z M 133.5,40.5 C 137.803,40.9631 139.636,43.2965 139,47.5C 136.089,51.8754 132.256,55.2087 127.5,57.5C 125.467,52.5967 122.8,48.0967 119.5,44C 124.172,42.3474 128.839,41.1808 133.5,40.5 Z M 10.5,60.5 C 13.5,60.5 16.5,60.5 19.5,60.5C 19.5,64.5 19.5,68.5 19.5,72.5C 15.4862,72.6655 11.4862,72.4988 7.5,72C 4.31139,70.4556 3.14473,67.9556 4,64.5C 6.01288,62.7518 8.17954,61.4185 10.5,60.5 Z M 128.5,60.5 C 133.267,60.1908 137.934,60.6908 142.5,62C 146.566,65.7448 146.233,69.0782 141.5,72C 137.833,72.6667 134.167,72.6667 130.5,72C 129.512,68.2549 128.845,64.4216 128.5,60.5 Z M 7.5,77.5 C 11.5,77.5 15.5,77.5 19.5,77.5C 19.5,81.5 19.5,85.5 19.5,89.5C 14.5884,89.9369 9.92171,89.1036 5.5,87C 2.74862,83.1667 3.41529,80.0001 7.5,77.5 Z M 130.5,77.5 C 134.967,77.1326 139.3,77.6326 143.5,79C 146.909,84.6363 145.243,87.9696 138.5,89C 135.118,89.8236 131.784,89.657 128.5,88.5C 129.248,84.8433 129.915,81.1766 130.5,77.5 Z M 20.5,92.5 C 22.5357,96.8992 24.8691,101.233 27.5,105.5C 22.5324,108.995 17.199,109.829 11.5,108C 10.4258,107.261 9.75908,106.261 9.5,105C 11.3644,99.1076 15.0311,94.941 20.5,92.5 Z M 127.5,92.5 C 133.743,94.2826 137.743,98.2826 139.5,104.5C 138.207,107.808 135.707,109.475 132,109.5C 128.204,108.847 124.704,107.514 121.5,105.5C 123.788,101.26 125.788,96.9269 127.5,92.5 Z M 29.5,108.5 C 33.3322,112.164 37.3322,115.664 41.5,119C 38.4432,121.723 35.1099,124.056 31.5,126C 25.021,128.168 22.1877,126.001 23,119.5C 24.5918,115.428 26.7585,111.761 29.5,108.5 Z M 118.5,108.5 C 122.693,112.211 125.36,116.878 126.5,122.5C 126.291,123.994 125.624,125.161 124.5,126C 121.406,126.652 118.406,126.318 115.5,125C 112.833,123 110.167,121 107.5,119C 111.668,115.998 115.335,112.498 118.5,108.5 Z M 43.5,120.5 C 47.9363,123.207 52.6029,125.54 57.5,127.5C 55.1034,131.787 52.1034,135.62 48.5,139C 45.1658,140.212 42.6658,139.379 41,136.5C 40.3333,133.833 40.3333,131.167 41,128.5C 42.1356,125.904 42.969,123.237 43.5,120.5 Z M 104.5,120.5 C 108.148,125.539 109.315,131.206 108,137.5C 105.373,139.988 102.54,140.155 99.5,138C 96.1123,135.214 93.4456,131.881 91.5,128C 96.5187,126.497 100.852,123.997 104.5,120.5 Z M 60.5,127.5 C 64.3258,129 68.3258,129.666 72.5,129.5C 72.7252,134.248 72.2252,138.915 71,143.5C 65.8299,147.597 62.4965,146.263 61,139.5C 60.5012,135.514 60.3345,131.514 60.5,127.5 Z M 86.5,128.5 C 89.1387,133.661 88.972,138.994 86,144.5C 82.6515,147.169 79.9848,146.503 78,142.5C 77.501,138.179 77.3343,133.846 77.5,129.5C 80.7131,129.81 83.7131,129.477 86.5,128.5 Z"/></g>
<g><path style="opacity:1" fill="#080808" d="M 70.5,41.5 C 78.9798,40.4035 85.8131,43.0702 91,49.5C 92.2546,59.093 92.9212,68.7596 93,78.5C 94.5899,80.6498 95.2566,82.9832 95,85.5C 92.9495,87.8878 90.6162,89.8878 88,91.5C 85.0819,90.7417 82.9152,89.075 81.5,86.5C 74.8807,91.6938 67.5474,92.8605 59.5,90C 54.6675,84.8082 53.1675,78.6416 55,71.5C 57.3151,67.1832 60.8151,64.3498 65.5,63C 70.1355,61.9334 74.8022,61.1001 79.5,60.5C 80.5034,53.3353 77.5034,50.502 70.5,52C 68.4376,53.5325 67.1043,55.5325 66.5,58C 62.7959,58.8042 59.2959,58.3042 56,56.5C 55.9089,51.5464 58.0756,47.713 62.5,45C 65.1579,43.522 67.8245,42.3554 70.5,41.5 Z"/></g>
<g><path style="opacity:1" fill="#fcfcfc" d="M 73.5,68.5 C 75.5,68.5 77.5,68.5 79.5,68.5C 79.7367,72.2733 79.2367,75.9399 78,79.5C 74.952,83.0095 71.6187,83.3428 68,80.5C 66.0357,74.5323 67.8691,70.5323 73.5,68.5 Z"/></g>
<g><path style="opacity:1" fill="#1d1b1a" d="M 97.5,92.5 C 99.5273,92.3379 101.527,92.5045 103.5,93C 105.693,97.1764 104.86,101.01 101,104.5C 100.776,101.89 101.276,99.3895 102.5,97C 100.038,95.7844 97.3713,95.1177 94.5,95C 95.5707,94.1482 96.5707,93.3149 97.5,92.5 Z"/></g>
<g><path style="opacity:1" fill="#1a1918" d="M 43.5,95.5 C 43.7352,94.9033 44.2352,94.5699 45,94.5C 62.1961,103.44 79.8628,104.44 98,97.5C 99.726,98.6479 99.5593,99.8145 97.5,101C 78.2295,110.951 60.2295,109.117 43.5,95.5 Z"/></g>
</svg>
