<?xml version="1.0" encoding="UTF-8"?>
<!DOCTYPE svg PUBLIC "-//W3C//DTD SVG 1.1//EN" "http://www.w3.org/Graphics/SVG/1.1/DTD/svg11.dtd">
<svg xmlns="http://www.w3.org/2000/svg" version="1.1" width="150px" height="150px" style="shape-rendering:geometricPrecision; text-rendering:geometricPrecision; image-rendering:optimizeQuality; fill-rule:evenodd; clip-rule:evenodd" xmlns:xlink="http://www.w3.org/1999/xlink">
<g><path style="opacity:0.899" fill="#fdfdfd" d="M 61.5,-0.5 C 64.8333,-0.5 68.1667,-0.5 71.5,-0.5C 73.7103,3.25547 76.0436,3.25547 78.5,-0.5C 81.5,-0.5 84.5,-0.5 87.5,-0.5C 90.3034,2.41669 92.6367,5.75002 94.5,9.5C 99.3461,4.77946 104.679,3.94613 110.5,7C 113.077,10.7519 114.077,14.9186 113.5,19.5C 128.338,15.1723 133.671,20.339 129.5,35C 144.939,35.8771 148.272,42.5437 139.5,55C 143.34,56.418 146.674,58.5847 149.5,61.5C 149.5,64.8333 149.5,68.1667 149.5,71.5C 145.5,73.5 145.5,75.5 149.5,77.5C 149.5,81.1667 149.5,84.8333 149.5,88.5C 146.644,91.0967 143.311,92.9301 139.5,94C 148.678,106.694 145.345,113.527 129.5,114.5C 133.872,123.749 131.206,129.749 121.5,132.5C 118.833,131.877 116.333,130.877 114,129.5C 115.197,139.964 110.697,144.798 100.5,144C 97.8976,143.117 95.7309,141.617 94,139.5C 92.9301,143.311 91.0967,146.644 88.5,149.5C 84.5,149.5 80.5,149.5 76.5,149.5C 75.1667,146.833 73.8333,146.833 72.5,149.5C 68.5,149.5 64.5,149.5 60.5,149.5C 58.139,146.114 56.4723,142.781 55.5,139.5C 45.4911,147.714 38.4911,145.714 34.5,133.5C 35.4279,132.232 35.5946,130.899 35,129.5C 26.4944,134.443 20.6611,132.277 17.5,123C 17.9773,120.112 18.6439,117.279 19.5,114.5C 15.8634,114.513 12.1967,113.68 8.5,112C 3.10333,105.515 3.77,99.5152 10.5,94C 6.25859,93.2127 2.59192,91.3793 -0.5,88.5C -0.5,84.8333 -0.5,81.1667 -0.5,77.5C 3.11391,75.7025 3.11391,73.7025 -0.5,71.5C -0.5,68.1667 -0.5,64.8333 -0.5,61.5C 2.32648,58.5847 5.65981,56.418 9.5,55C 1.99477,47.2047 2.99477,40.8713 12.5,36C 15.3315,35.7879 17.9982,35.6213 20.5,35.5C 15.3665,26.5647 17.6998,20.5647 27.5,17.5C 30.3258,17.8245 32.8258,18.8245 35,20.5C 35.9109,17.3667 36.2443,14.3667 36,11.5C 41.2432,3.03994 47.4099,2.37327 54.5,9.5C 56.3266,5.85943 58.6599,2.5261 61.5,-0.5 Z M 72.5,19.5 C 68.4659,19.5045 64.4659,19.8379 60.5,20.5C 59.7001,14.9547 60.7001,9.62137 63.5,4.5C 67.6475,2.77952 70.4808,4.11285 72,8.5C 72.4986,12.1516 72.6653,15.8183 72.5,19.5 Z M 88.5,20.5 C 84.7549,19.6689 81.0883,19.6689 77.5,20.5C 77.3342,15.8215 77.5008,11.1548 78,6.5C 82.2297,2.22175 85.563,2.88842 88,8.5C 89.6961,12.4618 89.8628,16.4618 88.5,20.5 Z M 57.5,21.5 C 52.4124,23.079 47.7457,25.4123 43.5,28.5C 42.1908,24.5966 41.1908,20.5966 40.5,16.5C 42.1218,9.02489 45.7885,7.85822 51.5,13C 53.3867,15.9502 55.3867,18.7835 57.5,21.5 Z M 105.5,29.5 C 101.618,26.3912 97.2844,24.0579 92.5,22.5C 94.3584,16.4718 98.1917,12.1385 104,9.5C 107.824,10.8306 109.324,13.4973 108.5,17.5C 108.083,21.6605 107.083,25.6605 105.5,29.5 Z M 118.5,42.5 C 114.862,38.5259 111.195,34.5259 107.5,30.5C 111.63,26.6824 116.463,24.0157 122,22.5C 123.473,22.9031 124.806,23.5697 126,24.5C 126.652,27.594 126.318,30.594 125,33.5C 122.615,36.3785 120.448,39.3785 118.5,42.5 Z M 40.5,30.5 C 36.4628,33.5367 33.1295,37.2034 30.5,41.5C 25.5646,37.2964 23.0646,31.963 23,25.5C 25.8408,23.4963 29.0074,22.9963 32.5,24C 35.4202,25.9461 38.0869,28.1128 40.5,30.5 Z M 13.5,40.5 C 16.8738,40.6744 20.2072,41.1744 23.5,42C 25.2861,42.1962 26.6195,43.0295 27.5,44.5C 24.8061,48.5545 22.6394,52.8878 21,57.5C 16,55.1667 12.3333,51.5 10,46.5C 9.65064,43.6695 10.8173,41.6695 13.5,40.5 Z M 126.5,58.5 C 124.466,53.4282 122.133,48.4282 119.5,43.5C 124.579,42.2171 129.745,41.2171 135,40.5C 139.536,42.3097 140.536,45.3097 138,49.5C 134.267,52.7454 130.434,55.7454 126.5,58.5 Z M 10.5,60.5 C 13.5,60.5 16.5,60.5 19.5,60.5C 19.5,64.5 19.5,68.5 19.5,72.5C 15.4862,72.6655 11.4862,72.4988 7.5,72C 4.31139,70.4556 3.14473,67.9556 4,64.5C 6.01288,62.7518 8.17954,61.4185 10.5,60.5 Z M 126.5,60.5 C 131.93,60.161 137.264,60.661 142.5,62C 146.566,65.7448 146.233,69.0782 141.5,72C 137.179,72.499 132.846,72.6657 128.5,72.5C 127.055,68.4957 126.389,64.4957 126.5,60.5 Z M 7.5,77.5 C 11.5,77.5 15.5,77.5 19.5,77.5C 19.5,81.5 19.5,85.5 19.5,89.5C 14.5884,89.9369 9.92171,89.1036 5.5,87C 2.74862,83.1667 3.41529,80.0001 7.5,77.5 Z M 105.5,118.5 C 106.5,117.167 107.5,115.833 108.5,114.5C 110.371,114.141 111.871,113.141 113,111.5C 115.615,107.217 118.615,103.217 122,99.5C 123.009,97.9751 123.509,96.3084 123.5,94.5C 124.503,91.1503 125.503,87.817 126.5,84.5C 126.453,78.7915 129.286,76.4582 135,77.5C 140.5,76.3254 144,78.3254 145.5,83.5C 145.471,85.0293 144.804,86.196 143.5,87C 138.013,88.8778 132.347,90.0445 126.5,90.5C 129.872,93.2765 133.372,95.9432 137,98.5C 141.033,104.767 139.366,108.434 132,109.5C 127.441,108.257 122.941,106.924 118.5,105.5C 120.696,110.232 123.196,114.898 126,119.5C 127.308,123.807 125.808,126.14 121.5,126.5C 119.423,126.308 117.423,125.808 115.5,125C 112.536,122.19 109.202,120.024 105.5,118.5 Z M 20.5,92.5 C 22.5357,96.8992 24.8691,101.233 27.5,105.5C 22.5324,108.995 17.199,109.829 11.5,108C 10.4258,107.261 9.75908,106.261 9.5,105C 11.3644,99.1076 15.0311,94.941 20.5,92.5 Z M 30.5,108.5 C 33.8604,112.527 37.5271,116.194 41.5,119.5C 38.3191,121.837 34.9858,124.004 31.5,126C 25.021,128.168 22.1877,126.001 23,119.5C 24.5516,115.127 27.0516,111.461 30.5,108.5 Z M 105.5,118.5 C 106.904,123.054 107.904,127.72 108.5,132.5C 108.68,139.376 105.68,141.21 99.5,138C 95.8878,134.59 92.8878,130.756 90.5,126.5C 95.6194,124.106 100.619,121.44 105.5,118.5 Z M 43.5,120.5 C 47.7291,123.467 52.3957,125.467 57.5,126.5C 55.377,131.225 52.377,135.392 48.5,139C 42.7281,140.732 40.0614,138.565 40.5,132.5C 41.0988,128.376 42.0988,124.376 43.5,120.5 Z M 89.5,126.5 C 88.7227,131.084 88.2227,135.75 88,140.5C 85.6576,147.517 82.3243,148.184 78,142.5C 77.501,138.179 77.3343,133.846 77.5,129.5C 78.609,129.443 79.609,129.11 80.5,128.5C 81.6348,127.897 82.6348,127.564 83.5,127.5C 85.5648,127.483 87.5648,127.15 89.5,126.5 Z M 60.5,127.5 C 64.0102,128.963 68.0102,129.63 72.5,129.5C 72.7252,134.248 72.2252,138.915 71,143.5C 65.8299,147.597 62.4965,146.263 61,139.5C 60.5012,135.514 60.3345,131.514 60.5,127.5 Z"/></g>
<g><path style="opacity:0.204" fill="#e7e7e7" d="M 72.5,19.5 C 73.9187,20.4511 75.5853,20.7845 77.5,20.5C 81.0883,19.6689 84.7549,19.6689 88.5,20.5C 87.5358,22.4047 85.8691,23.4047 83.5,23.5C 61.9308,18.7794 44.4308,25.1127 31,42.5C 30.6012,42.2716 30.4346,41.9382 30.5,41.5C 33.1295,37.2034 36.4628,33.5367 40.5,30.5C 42.0269,30.573 43.0269,29.9063 43.5,28.5C 47.7457,25.4123 52.4124,23.079 57.5,21.5C 58.779,22.7152 59.779,22.3818 60.5,20.5C 64.4659,19.8379 68.4659,19.5045 72.5,19.5 Z"/></g>
<g><path style="opacity:1" fill="#030303" d="M 92.5,89.5 C 88.5,89.5 84.5,89.5 80.5,89.5C 80.5,101.5 80.5,113.5 80.5,125.5C 75.8215,125.666 71.1548,125.499 66.5,125C 65.9558,124.283 65.2891,123.783 64.5,123.5C 64.5,112.167 64.5,100.833 64.5,89.5C 60.1667,89.5 55.8333,89.5 51.5,89.5C 51.5,84.5 51.5,79.5 51.5,74.5C 55.8333,74.5 60.1667,74.5 64.5,74.5C 60.6525,49.6804 70.9858,39.3471 95.5,43.5C 95.5,47.8333 95.5,52.1667 95.5,56.5C 82.1418,55.1364 77.1418,61.1364 80.5,74.5C 85.1667,74.5 89.8333,74.5 94.5,74.5C 94.3916,79.7105 93.7249,84.7105 92.5,89.5 Z"/></g>
<g><path style="opacity:0.988" fill="#ededed" d="M 92.5,22.5 C 97.2844,24.0579 101.618,26.3912 105.5,29.5C 105.842,30.3382 106.508,30.6716 107.5,30.5C 111.195,34.5259 114.862,38.5259 118.5,42.5C 118.5,43.1667 118.833,43.5 119.5,43.5C 122.133,48.4282 124.466,53.4282 126.5,58.5C 126.5,59.1667 126.5,59.8333 126.5,60.5C 126.389,64.4957 127.055,68.4957 128.5,72.5C 127.223,73.6936 126.556,75.3603 126.5,77.5C 125.984,80.0771 125.984,82.4104 126.5,84.5C 125.503,87.817 124.503,91.1503 123.5,94.5C 122.105,96.0544 121.439,95.721 121.5,93.5C 127.003,76.2948 125.003,59.9614 115.5,44.5C 115.709,43.914 116.043,43.414 116.5,43C 109.502,33.664 100.502,26.9973 89.5,23C 90.448,22.5172 91.448,22.3505 92.5,22.5 Z"/></g>
<g><path style="opacity:1" fill="#cacaca" d="M 92.5,89.5 C 89.0381,90.4816 85.3714,90.815 81.5,90.5C 81.8283,102.345 81.4949,114.012 80.5,125.5C 80.5,113.5 80.5,101.5 80.5,89.5C 84.5,89.5 88.5,89.5 92.5,89.5 Z"/></g>
<g><path style="opacity:0.941" fill="#dddddd" d="M 108.5,114.5 C 107.5,115.833 106.5,117.167 105.5,118.5C 100.619,121.44 95.6194,124.106 90.5,126.5C 90.1667,126.5 89.8333,126.5 89.5,126.5C 87.5648,127.15 85.5648,127.483 83.5,127.5C 89.5158,124.08 95.8491,120.914 102.5,118C 104.446,115.882 106.446,114.716 108.5,114.5 Z"/></g>
<g><path style="opacity:1" fill="#838383" d="M 64.5,123.5 C 65.2891,123.783 65.9558,124.283 66.5,125C 71.1548,125.499 75.8215,125.666 80.5,125.5C 80.5,125.833 80.5,126.167 80.5,126.5C 75.1667,126.5 69.8333,126.5 64.5,126.5C 64.5,125.5 64.5,124.5 64.5,123.5 Z"/></g>
<g><path style="opacity:0.012" fill="#d6d6d6" d="M 51.5,89.5 C 55.8333,89.5 60.1667,89.5 64.5,89.5C 64.5,100.833 64.5,112.167 64.5,123.5C 64.5,124.5 64.5,125.5 64.5,126.5C 69.8333,126.5 75.1667,126.5 80.5,126.5C 80.5,127.167 80.5,127.833 80.5,128.5C 79.609,129.11 78.609,129.443 77.5,129.5C 75.7044,126.952 74.0378,126.952 72.5,129.5C 68.0102,129.63 64.0102,128.963 60.5,127.5C 59.609,126.89 58.609,126.557 57.5,126.5C 52.3957,125.467 47.7291,123.467 43.5,120.5C 43.1583,119.662 42.4916,119.328 41.5,119.5C 37.5271,116.194 33.8604,112.527 30.5,108.5C 30.369,107.761 30.5357,107.094 31,106.5C 39.2621,116.967 49.9287,123.634 63,126.5C 63.4999,114.505 63.6665,102.505 63.5,90.5C 59.2984,90.8168 55.2984,90.4834 51.5,89.5 Z"/></g>
</svg>
