<?xml version="1.0" encoding="UTF-8"?>
<!DOCTYPE svg PUBLIC "-//W3C//DTD SVG 1.1//EN" "http://www.w3.org/Graphics/SVG/1.1/DTD/svg11.dtd">
<svg xmlns="http://www.w3.org/2000/svg" version="1.1" width="150px" height="150px" style="shape-rendering:geometricPrecision; text-rendering:geometricPrecision; image-rendering:optimizeQuality; fill-rule:evenodd; clip-rule:evenodd" xmlns:xlink="http://www.w3.org/1999/xlink">
<g><path style="opacity:0.877" fill="#fdfdfd" d="M 61.5,-0.5 C 64.8333,-0.5 68.1667,-0.5 71.5,-0.5C 73.7103,3.25547 76.0436,3.25547 78.5,-0.5C 81.5,-0.5 84.5,-0.5 87.5,-0.5C 90.3034,2.41669 92.6367,5.75002 94.5,9.5C 99.3461,4.77946 104.679,3.94613 110.5,7C 113.077,10.7519 114.077,14.9186 113.5,19.5C 128.338,15.1723 133.671,20.339 129.5,35C 144.939,35.8771 148.272,42.5437 139.5,55C 143.34,56.418 146.674,58.5847 149.5,61.5C 149.5,64.8333 149.5,68.1667 149.5,71.5C 145.5,73.5 145.5,75.5 149.5,77.5C 149.5,81.1667 149.5,84.8333 149.5,88.5C 146.644,91.0967 143.311,92.9301 139.5,94C 148.678,106.694 145.345,113.527 129.5,114.5C 133.872,123.749 131.206,129.749 121.5,132.5C 118.833,131.877 116.333,130.877 114,129.5C 115.197,139.964 110.697,144.798 100.5,144C 97.8976,143.117 95.7309,141.617 94,139.5C 92.9301,143.311 91.0967,146.644 88.5,149.5C 84.5,149.5 80.5,149.5 76.5,149.5C 75.1667,146.833 73.8333,146.833 72.5,149.5C 68.5,149.5 64.5,149.5 60.5,149.5C 58.139,146.114 56.4723,142.781 55.5,139.5C 45.4911,147.714 38.4911,145.714 34.5,133.5C 35.4279,132.232 35.5946,130.899 35,129.5C 26.4944,134.443 20.6611,132.277 17.5,123C 17.9773,120.112 18.6439,117.279 19.5,114.5C 15.8634,114.513 12.1967,113.68 8.5,112C 3.10333,105.515 3.77,99.5152 10.5,94C 6.25859,93.2127 2.59192,91.3793 -0.5,88.5C -0.5,84.8333 -0.5,81.1667 -0.5,77.5C 3.11391,75.7025 3.11391,73.7025 -0.5,71.5C -0.5,68.1667 -0.5,64.8333 -0.5,61.5C 2.32648,58.5847 5.65981,56.418 9.5,55C 1.99477,47.2047 2.99477,40.8713 12.5,36C 15.3315,35.7879 17.9982,35.6213 20.5,35.5C 15.3665,26.5647 17.6998,20.5647 27.5,17.5C 30.3258,17.8245 32.8258,18.8245 35,20.5C 35.9109,17.3667 36.2443,14.3667 36,11.5C 41.2432,3.03994 47.4099,2.37327 54.5,9.5C 56.3266,5.85943 58.6599,2.5261 61.5,-0.5 Z M 63.5,3.5 C 66.6516,2.95855 69.1516,3.95855 71,6.5C 72.3674,10.6996 72.8674,15.0329 72.5,19.5C 69.1165,19.3396 65.7831,19.673 62.5,20.5C 61.09,20.1322 60.09,19.2989 59.5,18C 59.9871,12.9015 61.3204,8.0682 63.5,3.5 Z M 88.5,21.5 C 85.1397,19.8124 81.8064,19.4791 78.5,20.5C 77.3516,16.0189 77.1849,11.3522 78,6.5C 82.2297,2.22175 85.563,2.88842 88,8.5C 89.8249,12.7818 89.9915,17.1151 88.5,21.5 Z M 44.5,9.5 C 47.09,10.1283 49.4234,11.295 51.5,13C 53.2567,15.8456 55.2567,18.5122 57.5,21C 53.0375,23.3003 48.7042,25.8003 44.5,28.5C 40.916,23.1836 40.0826,17.5169 42,11.5C 42.9947,10.9341 43.828,10.2674 44.5,9.5 Z M 105.5,29.5 C 101.236,26.2047 96.5689,23.8713 91.5,22.5C 94.088,16.7434 98.2547,12.4101 104,9.5C 107.824,10.8306 109.324,13.4973 108.5,17.5C 108.083,21.6605 107.083,25.6605 105.5,29.5 Z M 118.5,42.5 C 114.862,38.5259 111.195,34.5259 107.5,30.5C 111.63,26.6824 116.463,24.0157 122,22.5C 123.473,22.9031 124.806,23.5697 126,24.5C 126.652,27.594 126.318,30.594 125,33.5C 122.615,36.3785 120.448,39.3785 118.5,42.5 Z M 24.5,23.5 C 31.3012,22.569 36.6346,24.9023 40.5,30.5C 36.5083,33.6593 33.0083,37.326 30,41.5C 27.417,38.0026 25.0836,34.3359 23,30.5C 22.1668,27.829 22.6668,25.4957 24.5,23.5 Z M 13.5,40.5 C 19.0472,40.4359 24.0472,41.9359 28.5,45C 25.3578,48.7848 22.8578,52.9515 21,57.5C 16,55.1667 12.3333,51.5 10,46.5C 9.65064,43.6695 10.8173,41.6695 13.5,40.5 Z M 126.5,58.5 C 124.732,53.6303 122.399,48.9637 119.5,44.5C 124.296,42.2384 129.463,40.9051 135,40.5C 139.536,42.3097 140.536,45.3097 138,49.5C 134.267,52.7454 130.434,55.7454 126.5,58.5 Z M 10.5,60.5 C 14.6348,59.8898 18.3014,60.7232 21.5,63C 21,63.5 20.5,64 20,64.5C 19.8425,66.9951 19.6759,69.3284 19.5,71.5C 14.477,73.0112 9.64371,72.6779 5,70.5C 3.69862,68.6354 3.36528,66.6354 4,64.5C 6.01288,62.7518 8.17954,61.4185 10.5,60.5 Z M 126.5,60.5 C 131.93,60.161 137.264,60.661 142.5,62C 146.566,65.7448 146.233,69.0782 141.5,72C 137.179,72.499 132.846,72.6657 128.5,72.5C 128.606,69.9214 127.939,67.588 126.5,65.5C 127.72,63.9504 127.72,62.2837 126.5,60.5 Z M 7.5,77.5 C 11.5,77.5 15.5,77.5 19.5,77.5C 20.4393,81.297 21.1059,84.9636 21.5,88.5C 15.1072,90.393 9.27386,89.393 4,85.5C 3.27926,81.9463 4.44593,79.2796 7.5,77.5 Z M 127.5,77.5 C 132.179,77.3342 136.845,77.5008 141.5,78C 146.701,81.4265 146.701,84.7598 141.5,88C 136.544,88.9977 131.544,89.831 126.5,90.5C 129.872,93.2765 133.372,95.9432 137,98.5C 141.033,104.767 139.366,108.434 132,109.5C 127.441,108.257 122.941,106.924 118.5,105.5C 120.696,110.232 123.196,114.898 126,119.5C 127.308,123.807 125.808,126.14 121.5,126.5C 119.423,126.308 117.423,125.808 115.5,125C 112.64,122.64 109.64,120.473 106.5,118.5C 106.167,119.167 105.833,119.833 105.5,120.5C 107.32,124.294 108.32,128.294 108.5,132.5C 108.68,139.376 105.68,141.21 99.5,138C 95.9753,134.443 92.8086,130.61 90,126.5C 88.7258,130.985 88.0591,135.652 88,140.5C 85.6576,147.517 82.3243,148.184 78,142.5C 77.3333,137.5 77.3333,132.5 78,127.5C 80.4444,128.694 82.6111,128.194 84.5,126C 88.7387,124.587 93.0721,123.587 97.5,123C 102.179,118.57 107.346,114.737 113,111.5C 115.59,106.253 118.923,101.586 123,97.5C 124.624,90.8114 126.124,84.1448 127.5,77.5 Z M 21.5,91.5 C 23.5077,96.3113 26.1743,100.811 29.5,105C 23.85,108.733 17.85,109.733 11.5,108C 10.4258,107.261 9.75908,106.261 9.5,105C 10.3632,102.773 11.3632,100.607 12.5,98.5C 15.4754,95.9849 18.4754,93.6516 21.5,91.5 Z M 30.5,106.5 C 36.3959,112.126 42.7292,117.293 49.5,122C 57.2135,124.452 64.7135,126.619 72,128.5C 72.7511,133.572 72.4178,138.572 71,143.5C 65.8299,147.597 62.4965,146.263 61,139.5C 60.501,135.179 60.3343,130.846 60.5,126.5C 59.325,126.281 58.325,126.614 57.5,127.5C 55.1034,131.787 52.1034,135.62 48.5,139C 42.7281,140.732 40.0614,138.565 40.5,132.5C 40.991,128.528 41.991,124.695 43.5,121C 43.1667,120.167 42.8333,119.333 42.5,118.5C 38.9704,121.195 35.3037,123.695 31.5,126C 28.3307,126.978 25.4973,126.478 23,124.5C 22.6581,118.867 24.6581,114.2 29,110.5C 29.7914,109.255 30.2914,107.922 30.5,106.5 Z"/></g>
<g><path style="opacity:0.077" fill="#e5e5e5" d="M 78.5,20.5 C 81.8064,19.4791 85.1397,19.8124 88.5,21.5C 89.209,22.404 90.209,22.7373 91.5,22.5C 96.5689,23.8713 101.236,26.2047 105.5,29.5C 105.842,30.3382 106.508,30.6716 107.5,30.5C 111.195,34.5259 114.862,38.5259 118.5,42.5C 118.328,43.4916 118.662,44.1583 119.5,44.5C 122.399,48.9637 124.732,53.6303 126.5,58.5C 126.5,59.1667 126.5,59.8333 126.5,60.5C 127.72,62.2837 127.72,63.9504 126.5,65.5C 120.256,40.2598 104.256,25.2598 78.5,20.5 Z"/></g>
<g><path style="opacity:1" fill="#141414" d="M 56.5,42.5 C 67.1719,42.3335 77.8385,42.5002 88.5,43C 96.1628,44.6645 101.33,49.1645 104,56.5C 112.81,97.0238 96.9762,112.857 56.5,104C 49.5724,101.406 45.0724,96.5731 43,89.5C 42.3333,78.8333 42.3333,68.1667 43,57.5C 45.2632,50.4074 49.7632,45.4074 56.5,42.5 Z"/></g>
<g><path style="opacity:1" fill="#f9f9f9" d="M 56.5,48.5 C 67.505,48.3335 78.505,48.5002 89.5,49C 92.5395,50.0314 95.0395,51.8647 97,54.5C 98.6245,66.4035 98.9579,78.4035 98,90.5C 96.4067,94.4279 93.5733,96.9279 89.5,98C 78.5,98.6667 67.5,98.6667 56.5,98C 52.5095,96.0096 50.0095,92.8429 49,88.5C 48.3333,78.1667 48.3333,67.8333 49,57.5C 50.6416,53.6997 53.1416,50.6997 56.5,48.5 Z"/></g>
<g><path style="opacity:1" fill="#181818" d="M 88.5,53.5 C 92.9764,53.8003 94.3097,55.9669 92.5,60C 86.3389,60.878 85.0055,58.7113 88.5,53.5 Z"/></g>
<g><path style="opacity:1" fill="#0f0f0f" d="M 69.5,58.5 C 86.1925,58.8967 91.6925,66.8967 86,82.5C 77.2605,90.8104 68.9271,90.477 61,81.5C 56.5026,71.1563 59.336,63.4897 69.5,58.5 Z"/></g>
<g><path style="opacity:1" fill="#f5f5f5" d="M 70.5,63.5 C 80.4529,63.0962 84.6196,67.7629 83,77.5C 80.2667,82.5621 76.1,84.3954 70.5,83C 64.9752,80.0812 63.1419,75.5812 65,69.5C 66.3597,66.9774 68.193,64.9774 70.5,63.5 Z"/></g>
</svg>
