<?xml version="1.0" encoding="UTF-8"?>
<!DOCTYPE svg PUBLIC "-//W3C//DTD SVG 1.1//EN" "http://www.w3.org/Graphics/SVG/1.1/DTD/svg11.dtd">
<svg xmlns="http://www.w3.org/2000/svg" version="1.1" width="150px" height="150px" style="shape-rendering:geometricPrecision; text-rendering:geometricPrecision; image-rendering:optimizeQuality; fill-rule:evenodd; clip-rule:evenodd" xmlns:xlink="http://www.w3.org/1999/xlink">
<g><path style="opacity:0.908" fill="#fbfbfb" d="M 61.5,-0.5 C 64.8333,-0.5 68.1667,-0.5 71.5,-0.5C 73.7103,3.25547 76.0436,3.25547 78.5,-0.5C 81.5,-0.5 84.5,-0.5 87.5,-0.5C 90.3034,2.41669 92.6367,5.75002 94.5,9.5C 99.3461,4.77946 104.679,3.94613 110.5,7C 113.077,10.7519 114.077,14.9186 113.5,19.5C 128.338,15.1723 133.671,20.339 129.5,35C 144.939,35.8771 148.272,42.5437 139.5,55C 143.34,56.418 146.674,58.5847 149.5,61.5C 149.5,64.8333 149.5,68.1667 149.5,71.5C 145.5,73.5 145.5,75.5 149.5,77.5C 149.5,81.1667 149.5,84.8333 149.5,88.5C 146.644,91.0967 143.311,92.9301 139.5,94C 148.678,106.694 145.345,113.527 129.5,114.5C 133.872,123.749 131.206,129.749 121.5,132.5C 118.833,131.877 116.333,130.877 114,129.5C 115.197,139.964 110.697,144.798 100.5,144C 97.8976,143.117 95.7309,141.617 94,139.5C 92.9301,143.311 91.0967,146.644 88.5,149.5C 84.5,149.5 80.5,149.5 76.5,149.5C 75.1667,146.833 73.8333,146.833 72.5,149.5C 68.5,149.5 64.5,149.5 60.5,149.5C 58.139,146.114 56.4723,142.781 55.5,139.5C 45.4911,147.714 38.4911,145.714 34.5,133.5C 35.4279,132.232 35.5946,130.899 35,129.5C 26.4944,134.443 20.6611,132.277 17.5,123C 17.9773,120.112 18.6439,117.279 19.5,114.5C 15.8634,114.513 12.1967,113.68 8.5,112C 3.10333,105.515 3.77,99.5152 10.5,94C 6.25859,93.2127 2.59192,91.3793 -0.5,88.5C -0.5,84.8333 -0.5,81.1667 -0.5,77.5C 3.11391,75.7025 3.11391,73.7025 -0.5,71.5C -0.5,68.1667 -0.5,64.8333 -0.5,61.5C 2.32648,58.5847 5.65981,56.418 9.5,55C 1.99477,47.2047 2.99477,40.8713 12.5,36C 15.3315,35.7879 17.9982,35.6213 20.5,35.5C 15.3665,26.5647 17.6998,20.5647 27.5,17.5C 30.3258,17.8245 32.8258,18.8245 35,20.5C 35.9109,17.3667 36.2443,14.3667 36,11.5C 41.2432,3.03994 47.4099,2.37327 54.5,9.5C 56.3266,5.85943 58.6599,2.5261 61.5,-0.5 Z M 72.5,19.5 C 68.4659,19.5045 64.4659,19.8379 60.5,20.5C 59.7001,14.9547 60.7001,9.62137 63.5,4.5C 67.6475,2.77952 70.4808,4.11285 72,8.5C 72.4986,12.1516 72.6653,15.8183 72.5,19.5 Z M 88.5,20.5 C 84.7549,19.6689 81.0883,19.6689 77.5,20.5C 77.3342,15.8215 77.5008,11.1548 78,6.5C 82.2297,2.22175 85.563,2.88842 88,8.5C 89.6961,12.4618 89.8628,16.4618 88.5,20.5 Z M 54.5,17.5 C 49.9136,18.4598 45.9136,20.4598 42.5,23.5C 42.1667,23.5 41.8333,23.5 41.5,23.5C 40.7791,20.1825 40.6124,16.8492 41,13.5C 41.7589,11.3651 43.2589,10.0318 45.5,9.5C 49.5965,11.0307 52.5965,13.6973 54.5,17.5 Z M 107.5,23.5 C 103.505,21.5023 99.5046,19.5023 95.5,17.5C 97.1551,13.6807 99.9885,11.0141 104,9.5C 105.512,10.2567 106.846,11.2567 108,12.5C 108.755,16.2554 108.589,19.9221 107.5,23.5 Z M 55.5,19.5 C 56.5,19.8333 57.1667,20.5 57.5,21.5C 52.5414,22.9836 48.0414,25.317 44,28.5C 43.2086,27.255 42.7086,25.9217 42.5,24.5C 46.6641,22.321 50.9975,20.6544 55.5,19.5 Z M 93.5,19.5 C 98.251,20.7105 102.584,22.7105 106.5,25.5C 105.91,26.766 105.41,28.0993 105,29.5C 101.583,26.5389 97.75,24.2056 93.5,22.5C 92.4376,21.5754 92.4376,20.5754 93.5,19.5 Z M 122.5,36.5 C 119.167,33.5 115.833,30.5 112.5,27.5C 116.155,23.556 120.488,22.3893 125.5,24C 127.062,28.8088 126.062,32.9755 122.5,36.5 Z M 36.5,26.5 C 35.8333,27.5 35.1667,28.5 34.5,29.5C 31.8333,30.1667 30.1667,31.8333 29.5,34.5C 28.5,35.1667 27.5,35.8333 26.5,36.5C 23.5988,33.3691 22.4321,29.7024 23,25.5C 27.6819,22.729 32.1819,23.0624 36.5,26.5 Z M 30.5,34.5 C 32.1667,33.5 33.5,32.1667 34.5,30.5C 36.0443,30.2969 37.3777,29.6302 38.5,28.5C 39.5,28.8333 40.1667,29.5 40.5,30.5C 36.4804,33.6859 32.9804,37.3525 30,41.5C 29.5,40.5 29,39.5 28.5,38.5C 29.6302,37.3777 30.2969,36.0443 30.5,34.5 Z M 111.5,28.5 C 114.167,31.8333 117.167,34.8333 120.5,37.5C 120.372,39.0898 119.705,40.4231 118.5,41.5C 115.314,37.4804 111.647,33.9804 107.5,31C 108.693,29.9054 110.027,29.072 111.5,28.5 Z M 22.5,41.5 C 20.5492,45.7331 18.8825,50.0664 17.5,54.5C 12.4952,52.4777 9.99518,48.811 10,43.5C 13.687,40.1977 17.8537,39.5311 22.5,41.5 Z M 131.5,54.5 C 129.755,50.0117 127.755,45.6784 125.5,41.5C 128.728,41.7006 131.895,41.3672 135,40.5C 139.536,42.3097 140.536,45.3097 138,49.5C 136.242,51.7655 134.075,53.4322 131.5,54.5 Z M 21.5,57.5 C 20.5,57.1667 19.8333,56.5 19.5,55.5C 19.3893,54.8826 19.056,54.3826 18.5,54C 21.1087,50.9492 22.7754,47.4492 23.5,43.5C 25.2296,42.0243 26.5629,42.3576 27.5,44.5C 24.678,48.476 22.678,52.8094 21.5,57.5 Z M 124.5,42.5 C 125.895,46.2901 127.562,49.9568 129.5,53.5C 129.778,55.3464 129.111,56.6798 127.5,57.5C 125.467,52.5967 122.8,48.0967 119.5,44C 121.247,43.6481 122.914,43.1481 124.5,42.5 Z M 10.5,60.5 C 12.1992,60.3398 13.8659,60.5065 15.5,61C 14.4652,62.5069 14.6319,64.0069 16,65.5C 16.0976,63.3807 16.9309,61.714 18.5,60.5C 19.4909,64.4454 19.8242,68.4454 19.5,72.5C 16.6225,71.4146 13.7891,71.4146 11,72.5C 5.41585,72.5865 3.08252,69.9198 4,64.5C 6.01288,62.7518 8.17954,61.4185 10.5,60.5 Z M 128.5,60.5 C 129.5,60.5 130.5,60.5 131.5,60.5C 131.459,64.2434 132.126,64.4101 133.5,61C 138.034,59.9563 141.867,61.123 145,64.5C 145.499,70.7858 142.499,73.4525 136,72.5C 133.906,72.4644 131.906,72.1311 130,71.5C 129.452,67.8296 128.952,64.1629 128.5,60.5 Z M 17.5,89.5 C 17.0046,87.5183 16.5046,85.5183 16,83.5C 14.3115,85.3196 14.1448,87.3196 15.5,89.5C 11.1249,89.6531 7.29158,88.3197 4,85.5C 3.14473,82.0444 4.31139,79.5444 7.5,78C 11.4862,77.5012 15.4862,77.3345 19.5,77.5C 20.0894,81.9707 19.4228,85.9707 17.5,89.5 Z M 130.5,77.5 C 134.182,77.3347 137.848,77.5014 141.5,78C 145.662,80.3075 146.328,83.3075 143.5,87C 140.392,88.7585 137.059,89.5919 133.5,89.5C 132.386,84.3706 131.719,84.3706 131.5,89.5C 130.325,89.719 129.325,89.3857 128.5,88.5C 129.248,84.8433 129.915,81.1766 130.5,77.5 Z M 25.5,106.5 C 23.3223,103.338 21.3223,100.005 19.5,96.5C 19.3118,94.8967 19.8118,93.5634 21,92.5C 22.6394,97.1122 24.8061,101.446 27.5,105.5C 27.0431,106.298 26.3764,106.631 25.5,106.5 Z M 130.5,94.5 C 127.801,98.2367 125.467,102.237 123.5,106.5C 122.624,106.631 121.957,106.298 121.5,105.5C 123.682,101.136 125.849,96.8022 128,92.5C 128.995,93.0659 129.828,93.7326 130.5,94.5 Z M 17.5,94.5 C 18.7105,99.251 20.7105,103.584 23.5,107.5C 18.9227,110.009 14.4227,109.676 10,106.5C 10.1996,101.108 12.6996,97.1078 17.5,94.5 Z M 131.5,94.5 C 137.841,97.3293 139.841,101.829 137.5,108C 133.408,109.912 129.408,109.746 125.5,107.5C 127.755,103.322 129.755,98.9883 131.5,94.5 Z M 38.5,120.5 C 35.9906,119.079 33.6572,117.412 31.5,115.5C 30.8825,113.771 29.8825,112.271 28.5,111C 29.1258,110.25 29.6258,109.416 30,108.5C 33.5338,112.369 37.3672,115.869 41.5,119C 40.7562,120.039 39.7562,120.539 38.5,120.5 Z M 120.5,111.5 C 117.167,114.167 114.167,117.167 111.5,120.5C 110.078,120.291 108.745,119.791 107.5,119C 111.633,115.869 115.466,112.369 119,108.5C 120.039,109.244 120.539,110.244 120.5,111.5 Z M 30.5,115.5 C 32.3737,117.813 34.3737,120.146 36.5,122.5C 32.5032,126.761 28.0032,127.428 23,124.5C 22.6058,119.948 23.9392,115.948 27,112.5C 28.0391,113.71 29.2058,114.71 30.5,115.5 Z M 121.5,112.5 C 125.442,116.046 126.775,120.379 125.5,125.5C 119.912,127.191 115.245,125.858 111.5,121.5C 115.436,119.234 118.769,116.234 121.5,112.5 Z M 55.5,129.5 C 51.7356,128.452 48.069,127.119 44.5,125.5C 44.0825,124.778 43.4158,124.278 42.5,124C 43.1905,122.933 43.6905,121.766 44,120.5C 48.2346,123.304 52.7346,125.637 57.5,127.5C 57.1445,128.522 56.4778,129.189 55.5,129.5 Z M 106.5,124.5 C 102.267,126.451 97.9336,128.117 93.5,129.5C 92.7109,129.217 92.0442,128.717 91.5,128C 96.5324,126.402 101.032,123.902 105,120.5C 105.791,121.745 106.291,123.078 106.5,124.5 Z M 44.5,127.5 C 47.5884,129.375 50.9217,130.708 54.5,131.5C 52.3408,137.192 48.3408,139.692 42.5,139C 40.0163,134.64 39.8496,130.14 42,125.5C 42.7083,126.381 43.5416,127.047 44.5,127.5 Z M 107.5,125.5 C 109.173,130.247 108.84,134.747 106.5,139C 100.601,139.61 96.601,137.11 94.5,131.5C 98.9576,129.771 103.291,127.771 107.5,125.5 Z M 60.5,127.5 C 64.3258,129 68.3258,129.666 72.5,129.5C 72.7252,134.248 72.2252,138.915 71,143.5C 67.5095,147.588 64.5095,147.255 62,142.5C 60.8512,139.607 60.3512,136.607 60.5,133.5C 63.7973,133.671 64.1306,133.005 61.5,131.5C 60.5713,130.311 60.238,128.978 60.5,127.5 Z M 86.5,128.5 C 87.4972,128.47 88.1639,128.97 88.5,130C 87.7282,131.221 86.7282,132.221 85.5,133C 86.448,133.483 87.448,133.649 88.5,133.5C 88.9111,137.463 88.0778,141.13 86,144.5C 82.6515,147.169 79.9848,146.503 78,142.5C 77.501,138.179 77.3343,133.846 77.5,129.5C 80.7131,129.81 83.7131,129.477 86.5,128.5 Z"/></g>
<g><path style="opacity:0.05" fill="#707070" d="M 95.5,17.5 C 99.5046,19.5023 103.505,21.5023 107.5,23.5C 107.672,24.4916 107.338,25.1583 106.5,25.5C 102.584,22.7105 98.251,20.7105 93.5,19.5C 93.8333,18.5 94.5,17.8333 95.5,17.5 Z"/></g>
<g><path style="opacity:0.053" fill="#7b7b7b" d="M 54.5,17.5 C 55.3382,17.8417 55.6716,18.5084 55.5,19.5C 50.9975,20.6544 46.6641,22.321 42.5,24.5C 42.5,24.1667 42.5,23.8333 42.5,23.5C 45.9136,20.4598 49.9136,18.4598 54.5,17.5 Z"/></g>
<g><path style="opacity:0.675" fill="#e7e7e7" d="M 72.5,19.5 C 73.9187,20.4511 75.5853,20.7845 77.5,20.5C 81.0883,19.6689 84.7549,19.6689 88.5,20.5C 88.0296,21.6935 87.0296,22.3601 85.5,22.5C 65.5437,19.3362 48.377,24.6695 34,38.5C 29.3125,44.5561 25.1458,50.8894 21.5,57.5C 22.678,52.8094 24.678,48.476 27.5,44.5C 26.5629,42.3576 25.2296,42.0243 23.5,43.5C 23.5,42.8333 23.5,42.1667 23.5,41.5C 24.925,40.078 25.925,38.4113 26.5,36.5C 27.5,35.8333 28.5,35.1667 29.5,34.5C 29.8333,34.5 30.1667,34.5 30.5,34.5C 30.2969,36.0443 29.6302,37.3777 28.5,38.5C 29,39.5 29.5,40.5 30,41.5C 32.9804,37.3525 36.4804,33.6859 40.5,30.5C 40.1667,29.5 39.5,28.8333 38.5,28.5C 37.3777,29.6302 36.0443,30.2969 34.5,30.5C 34.5,30.1667 34.5,29.8333 34.5,29.5C 35.1667,28.5 35.8333,27.5 36.5,26.5C 38.674,26.2503 40.3406,25.2503 41.5,23.5C 41.8333,23.5 42.1667,23.5 42.5,23.5C 42.5,23.8333 42.5,24.1667 42.5,24.5C 42.7086,25.9217 43.2086,27.255 44,28.5C 48.0414,25.317 52.5414,22.9836 57.5,21.5C 58.779,22.7152 59.779,22.3818 60.5,20.5C 64.4659,19.8379 68.4659,19.5045 72.5,19.5 Z"/></g>
<g><path style="opacity:0.043" fill="#888888" d="M 112.5,27.5 C 115.833,30.5 119.167,33.5 122.5,36.5C 122.158,37.3382 121.492,37.6716 120.5,37.5C 117.167,34.8333 114.167,31.8333 111.5,28.5C 111.5,27.8333 111.833,27.5 112.5,27.5 Z"/></g>
<g><path style="opacity:0.039" fill="#464646" d="M 34.5,29.5 C 34.5,29.8333 34.5,30.1667 34.5,30.5C 33.5,32.1667 32.1667,33.5 30.5,34.5C 30.1667,34.5 29.8333,34.5 29.5,34.5C 30.1667,31.8333 31.8333,30.1667 34.5,29.5 Z"/></g>
<g><path style="opacity:1" fill="#070707" d="M 50.5,46.5 C 66.731,45.6221 82.731,47.1221 98.5,51C 105.539,52.6656 111.706,55.8323 117,60.5C 117.993,66.5017 115.493,68.6683 109.5,67C 90.4824,57.9392 70.4824,54.9392 49.5,58C 44.8798,59.3267 40.2131,59.9934 35.5,60C 32.5749,56.304 32.9083,52.9707 36.5,50C 41.3677,49.1165 46.0344,47.9498 50.5,46.5 Z"/></g>
<g><path style="opacity:0.047" fill="#757575" d="M 125.5,41.5 C 127.755,45.6784 129.755,50.0117 131.5,54.5C 131.565,54.9382 131.399,55.2716 131,55.5C 130.722,54.5842 130.222,53.9175 129.5,53.5C 127.562,49.9568 125.895,46.2901 124.5,42.5C 124.5,41.8333 124.833,41.5 125.5,41.5 Z"/></g>
<g><path style="opacity:0.09" fill="#808080" d="M 22.5,41.5 C 22.8333,41.5 23.1667,41.5 23.5,41.5C 23.5,42.1667 23.5,42.8333 23.5,43.5C 22.7754,47.4492 21.1087,50.9492 18.5,54C 19.056,54.3826 19.3893,54.8826 19.5,55.5C 18.5084,55.6716 17.8417,55.3382 17.5,54.5C 18.8825,50.0664 20.5492,45.7331 22.5,41.5 Z"/></g>
<g><path style="opacity:1" fill="#070707" d="M 50.5,67.5 C 69.7947,65.3266 88.1281,68.4933 105.5,77C 110.967,80.566 110.8,83.7326 105,86.5C 87.359,76.6153 68.5257,73.4486 48.5,77C 46.2779,77.6946 44.1113,78.5279 42,79.5C 36.7586,77.0413 36.2586,73.8747 40.5,70C 44.0899,69.6894 47.4233,68.856 50.5,67.5 Z"/></g>
<g><path style="opacity:1" fill="#090909" d="M 53.5,86.5 C 70.5346,84.5394 86.3679,87.8727 101,96.5C 101.825,98.7008 101.325,100.534 99.5,102C 94.4978,100.344 89.4978,98.344 84.5,96C 80.5,95.3333 76.5,94.6667 72.5,94C 61.7608,93.2934 51.0941,93.7934 40.5,95.5C 40.2606,93.5328 40.5939,91.6995 41.5,90C 45.5313,88.5092 49.5313,87.3425 53.5,86.5 Z"/></g>
<g><path style="opacity:0.053" fill="#909090" d="M 17.5,89.5 C 16.8333,89.5 16.1667,89.5 15.5,89.5C 14.1448,87.3196 14.3115,85.3196 16,83.5C 16.5046,85.5183 17.0046,87.5183 17.5,89.5 Z"/></g>
<g><path style="opacity:0.055" fill="#7b7b7b" d="M 130.5,94.5 C 130.833,94.5 131.167,94.5 131.5,94.5C 129.755,98.9883 127.755,103.322 125.5,107.5C 124.508,107.672 123.842,107.338 123.5,106.5C 125.467,102.237 127.801,98.2367 130.5,94.5 Z"/></g>
<g><path style="opacity:0.047" fill="#7e7e7e" d="M 17.5,94.5 C 18.1667,95.1667 18.8333,95.8333 19.5,96.5C 21.3223,100.005 23.3223,103.338 25.5,106.5C 25.1583,107.338 24.4916,107.672 23.5,107.5C 20.7105,103.584 18.7105,99.251 17.5,94.5 Z"/></g>
<g><path style="opacity:0.048" fill="#7b7b7b" d="M 120.5,111.5 C 121.167,111.5 121.5,111.833 121.5,112.5C 118.769,116.234 115.436,119.234 111.5,121.5C 111.5,121.167 111.5,120.833 111.5,120.5C 114.167,117.167 117.167,114.167 120.5,111.5 Z"/></g>
<g><path style="opacity:0.048" fill="#7b7b7b" d="M 30.5,115.5 C 30.8333,115.5 31.1667,115.5 31.5,115.5C 33.6572,117.412 35.9906,119.079 38.5,120.5C 38.5,121.833 37.8333,122.5 36.5,122.5C 34.3737,120.146 32.3737,117.813 30.5,115.5 Z"/></g>
<g><path style="opacity:0.047" fill="#919191" d="M 106.5,124.5 C 107.167,124.5 107.5,124.833 107.5,125.5C 103.291,127.771 98.9576,129.771 94.5,131.5C 93.6618,131.158 93.3284,130.492 93.5,129.5C 97.9336,128.117 102.267,126.451 106.5,124.5 Z"/></g>
<g><path style="opacity:0.059" fill="#767676" d="M 44.5,125.5 C 48.069,127.119 51.7356,128.452 55.5,129.5C 55.6716,130.492 55.3382,131.158 54.5,131.5C 50.9217,130.708 47.5884,129.375 44.5,127.5C 44.5,126.833 44.5,126.167 44.5,125.5 Z"/></g>
</svg>
