<?xml version="1.0" encoding="UTF-8"?>
<!DOCTYPE svg PUBLIC "-//W3C//DTD SVG 1.1//EN" "http://www.w3.org/Graphics/SVG/1.1/DTD/svg11.dtd">
<svg xmlns="http://www.w3.org/2000/svg" version="1.1" width="150px" height="150px" style="shape-rendering:geometricPrecision; text-rendering:geometricPrecision; image-rendering:optimizeQuality; fill-rule:evenodd; clip-rule:evenodd" xmlns:xlink="http://www.w3.org/1999/xlink">
<g><path style="opacity:0.907" fill="#fdfdfd" d="M 61.5,-0.5 C 64.8333,-0.5 68.1667,-0.5 71.5,-0.5C 73.7103,3.25547 76.0436,3.25547 78.5,-0.5C 81.5,-0.5 84.5,-0.5 87.5,-0.5C 90.3034,2.41669 92.6367,5.75002 94.5,9.5C 99.3461,4.77946 104.679,3.94613 110.5,7C 113.077,10.7519 114.077,14.9186 113.5,19.5C 128.338,15.1723 133.671,20.339 129.5,35C 144.939,35.8771 148.272,42.5437 139.5,55C 143.34,56.418 146.674,58.5847 149.5,61.5C 149.5,64.8333 149.5,68.1667 149.5,71.5C 145.5,73.5 145.5,75.5 149.5,77.5C 149.5,81.1667 149.5,84.8333 149.5,88.5C 146.644,91.0967 143.311,92.9301 139.5,94C 148.678,106.694 145.345,113.527 129.5,114.5C 133.872,123.749 131.206,129.749 121.5,132.5C 118.833,131.877 116.333,130.877 114,129.5C 115.197,139.964 110.697,144.798 100.5,144C 97.8976,143.117 95.7309,141.617 94,139.5C 92.9301,143.311 91.0967,146.644 88.5,149.5C 84.5,149.5 80.5,149.5 76.5,149.5C 75.1667,146.833 73.8333,146.833 72.5,149.5C 68.5,149.5 64.5,149.5 60.5,149.5C 58.139,146.114 56.4723,142.781 55.5,139.5C 45.4911,147.714 38.4911,145.714 34.5,133.5C 35.4279,132.232 35.5946,130.899 35,129.5C 26.4944,134.443 20.6611,132.277 17.5,123C 17.9773,120.112 18.6439,117.279 19.5,114.5C 15.8634,114.513 12.1967,113.68 8.5,112C 3.10333,105.515 3.77,99.5152 10.5,94C 6.25859,93.2127 2.59192,91.3793 -0.5,88.5C -0.5,84.8333 -0.5,81.1667 -0.5,77.5C 3.11391,75.7025 3.11391,73.7025 -0.5,71.5C -0.5,68.1667 -0.5,64.8333 -0.5,61.5C 2.32648,58.5847 5.65981,56.418 9.5,55C 1.99477,47.2047 2.99477,40.8713 12.5,36C 15.3315,35.7879 17.9982,35.6213 20.5,35.5C 15.3665,26.5647 17.6998,20.5647 27.5,17.5C 30.3258,17.8245 32.8258,18.8245 35,20.5C 35.9109,17.3667 36.2443,14.3667 36,11.5C 41.2432,3.03994 47.4099,2.37327 54.5,9.5C 56.3266,5.85943 58.6599,2.5261 61.5,-0.5 Z M 63.5,3.5 C 66.6516,2.95855 69.1516,3.95855 71,6.5C 72.3674,10.6996 72.8674,15.0329 72.5,19.5C 69.1165,19.3396 65.7831,19.673 62.5,20.5C 61.09,20.1322 60.09,19.2989 59.5,18C 59.9871,12.9015 61.3204,8.0682 63.5,3.5 Z M 80.5,3.5 C 84.4196,3.04281 86.9196,4.70947 88,8.5C 89.6961,12.4618 89.8628,16.4618 88.5,20.5C 84.8455,20.0578 81.1788,19.7244 77.5,19.5C 77.3343,15.1539 77.501,10.8206 78,6.5C 79.045,5.62656 79.8783,4.62656 80.5,3.5 Z M 44.5,9.5 C 47.09,10.1283 49.4234,11.295 51.5,13C 53.2567,15.8456 55.2567,18.5122 57.5,21C 53.1229,23.0707 48.7895,25.2374 44.5,27.5C 43.914,27.2907 43.414,26.9574 43,26.5C 40.5582,21.5604 40.2248,16.5604 42,11.5C 42.9947,10.9341 43.828,10.2674 44.5,9.5 Z M 103.5,9.5 C 107.594,10.6027 109.261,13.2694 108.5,17.5C 108.217,21.7393 107.05,25.7393 105,29.5C 101.088,26.4591 96.9211,23.7924 92.5,21.5C 94.8289,16.1752 98.4956,12.1752 103.5,9.5 Z M 120.5,22.5 C 124.176,22.3192 126.176,23.9858 126.5,27.5C 126.17,30.324 125.336,32.9906 124,35.5C 121.626,37.539 119.626,39.8723 118,42.5C 114.869,38.3672 111.369,34.5338 107.5,31C 111.249,27.1349 115.582,24.3016 120.5,22.5 Z M 24.5,23.5 C 31.0781,22.623 36.4115,24.7896 40.5,30C 36.3333,32.8333 32.8333,36.3333 30,40.5C 25.1965,36.5643 22.8632,31.5643 23,25.5C 23.7172,24.9558 24.2172,24.2891 24.5,23.5 Z M 13.5,40.5 C 16.8738,40.6744 20.2072,41.1744 23.5,42C 25.2861,42.1962 26.6195,43.0295 27.5,44.5C 24.8061,48.5545 22.6394,52.8878 21,57.5C 16,55.1667 12.3333,51.5 10,46.5C 9.65064,43.6695 10.8173,41.6695 13.5,40.5 Z M 133.5,40.5 C 137.803,40.9631 139.636,43.2965 139,47.5C 135.489,52.0959 131.156,55.7625 126,58.5C 124.643,53.4526 122.476,48.7859 119.5,44.5C 124.062,42.3645 128.728,41.0312 133.5,40.5 Z M 10.5,60.5 C 13.5,60.5 16.5,60.5 19.5,60.5C 19.7592,64.2396 19.4259,67.9062 18.5,71.5C 14.0832,72.87 9.74982,72.7033 5.5,71C 2.96595,68.2533 2.96595,65.5867 5.5,63C 7.31456,62.2432 8.98123,61.4098 10.5,60.5 Z M 126.5,61.5 C 131.739,60.1401 137.072,60.3068 142.5,62C 146.566,65.7448 146.233,69.0782 141.5,72C 137.179,72.499 132.846,72.6657 128.5,72.5C 127.415,68.6334 126.749,64.9668 126.5,61.5 Z M 7.5,77.5 C 11.5,77.5 15.5,77.5 19.5,77.5C 19.5,81.5 19.5,85.5 19.5,89.5C 14.5884,89.9369 9.92171,89.1036 5.5,87C 2.74862,83.1667 3.41529,80.0001 7.5,77.5 Z M 105.5,118.5 C 107.64,115.835 110.14,113.502 113,111.5C 115.615,107.217 118.615,103.217 122,99.5C 124.012,92.4527 126.179,85.4527 128.5,78.5C 132.795,77.3391 137.129,77.1725 141.5,78C 146.701,81.4265 146.701,84.7598 141.5,88C 136.544,88.9977 131.544,89.831 126.5,90.5C 129.872,93.2765 133.372,95.9432 137,98.5C 141.033,104.767 139.366,108.434 132,109.5C 127.441,108.257 122.941,106.924 118.5,105.5C 120.696,110.232 123.196,114.898 126,119.5C 127.308,123.807 125.808,126.14 121.5,126.5C 119.423,126.308 117.423,125.808 115.5,125C 112.536,122.19 109.202,120.024 105.5,118.5 Z M 20.5,92.5 C 22.5357,96.8992 24.8691,101.233 27.5,105.5C 22.5324,108.995 17.199,109.829 11.5,108C 10.4258,107.261 9.75908,106.261 9.5,105C 11.3644,99.1076 15.0311,94.941 20.5,92.5 Z M 29.5,108.5 C 33.3322,112.164 37.3322,115.664 41.5,119C 38.4432,121.723 35.1099,124.056 31.5,126C 25.021,128.168 22.1877,126.001 23,119.5C 24.5918,115.428 26.7585,111.761 29.5,108.5 Z M 105.5,118.5 C 106.904,123.054 107.904,127.72 108.5,132.5C 108.68,139.376 105.68,141.21 99.5,138C 95.8966,134.62 92.8966,130.787 90.5,126.5C 95.7036,124.067 100.704,121.4 105.5,118.5 Z M 43.5,120.5 C 47.9363,123.207 52.6029,125.54 57.5,127.5C 55.1034,131.787 52.1034,135.62 48.5,139C 45.1658,140.212 42.6658,139.379 41,136.5C 40.3333,133.833 40.3333,131.167 41,128.5C 42.1356,125.904 42.969,123.237 43.5,120.5 Z M 87.5,126.5 C 88.2389,126.369 88.9056,126.536 89.5,127C 88.6971,131.414 88.1971,135.914 88,140.5C 85.6576,147.517 82.3243,148.184 78,142.5C 77.1725,138.129 77.3391,133.795 78.5,129.5C 81.5513,129.059 84.5513,128.059 87.5,126.5 Z M 60.5,127.5 C 64.0102,128.963 68.0102,129.63 72.5,129.5C 72.7252,134.248 72.2252,138.915 71,143.5C 65.8299,147.597 62.4965,146.263 61,139.5C 60.5012,135.514 60.3345,131.514 60.5,127.5 Z"/></g>
<g><path style="opacity:1" fill="#040404" d="M 73.5,39.5 C 77.8333,39.5 82.1667,39.5 86.5,39.5C 87.4515,48.0621 92.1182,53.3955 100.5,55.5C 101.492,59.7828 101.826,64.1161 101.5,68.5C 95.8718,68.093 90.5385,66.7596 85.5,64.5C 85.6664,73.5062 85.4998,82.5062 85,91.5C 76.7393,108.139 64.5726,111.639 48.5,102C 39.1379,90.7344 39.4713,79.7344 49.5,69C 53.9421,65.2375 58.9421,64.0708 64.5,65.5C 63.5741,69.0938 63.2408,72.7604 63.5,76.5C 54.6658,78.1675 52.1658,83.1675 56,91.5C 62.4028,97.2202 68.0694,96.5535 73,89.5C 73.4999,72.8367 73.6666,56.17 73.5,39.5 Z"/></g>
</svg>
