<?xml version="1.0" encoding="UTF-8"?>
<!DOCTYPE svg PUBLIC "-//W3C//DTD SVG 1.1//EN" "http://www.w3.org/Graphics/SVG/1.1/DTD/svg11.dtd">
<svg xmlns="http://www.w3.org/2000/svg" version="1.1" width="150px" height="150px" style="shape-rendering:geometricPrecision; text-rendering:geometricPrecision; image-rendering:optimizeQuality; fill-rule:evenodd; clip-rule:evenodd" xmlns:xlink="http://www.w3.org/1999/xlink">
<g><path style="opacity:0.729" fill="#fefefe" d="M 61.5,-0.5 C 64.8333,-0.5 68.1667,-0.5 71.5,-0.5C 73.7103,3.25547 76.0436,3.25547 78.5,-0.5C 81.5,-0.5 84.5,-0.5 87.5,-0.5C 90.3034,2.41669 92.6367,5.75002 94.5,9.5C 99.3461,4.77946 104.679,3.94613 110.5,7C 113.077,10.7519 114.077,14.9186 113.5,19.5C 128.338,15.1723 133.671,20.339 129.5,35C 144.939,35.8771 148.272,42.5437 139.5,55C 143.34,56.418 146.674,58.5847 149.5,61.5C 149.5,64.8333 149.5,68.1667 149.5,71.5C 145.5,73.5 145.5,75.5 149.5,77.5C 149.5,81.1667 149.5,84.8333 149.5,88.5C 146.644,91.0967 143.311,92.9301 139.5,94C 148.678,106.694 145.345,113.527 129.5,114.5C 133.872,123.749 131.206,129.749 121.5,132.5C 118.833,131.877 116.333,130.877 114,129.5C 115.197,139.964 110.697,144.798 100.5,144C 97.8976,143.117 95.7309,141.617 94,139.5C 92.9301,143.311 91.0967,146.644 88.5,149.5C 84.5,149.5 80.5,149.5 76.5,149.5C 75.1667,146.833 73.8333,146.833 72.5,149.5C 68.5,149.5 64.5,149.5 60.5,149.5C 58.139,146.114 56.4723,142.781 55.5,139.5C 45.4911,147.714 38.4911,145.714 34.5,133.5C 35.4279,132.232 35.5946,130.899 35,129.5C 26.4944,134.443 20.6611,132.277 17.5,123C 17.9773,120.112 18.6439,117.279 19.5,114.5C 15.8634,114.513 12.1967,113.68 8.5,112C 3.10333,105.515 3.77,99.5152 10.5,94C 6.25859,93.2127 2.59192,91.3793 -0.5,88.5C -0.5,84.8333 -0.5,81.1667 -0.5,77.5C 3.11391,75.7025 3.11391,73.7025 -0.5,71.5C -0.5,68.1667 -0.5,64.8333 -0.5,61.5C 2.32648,58.5847 5.65981,56.418 9.5,55C 1.99477,47.2047 2.99477,40.8713 12.5,36C 15.3315,35.7879 17.9982,35.6213 20.5,35.5C 15.3665,26.5647 17.6998,20.5647 27.5,17.5C 30.3258,17.8245 32.8258,18.8245 35,20.5C 35.9109,17.3667 36.2443,14.3667 36,11.5C 41.2432,3.03994 47.4099,2.37327 54.5,9.5C 56.3266,5.85943 58.6599,2.5261 61.5,-0.5 Z M 72.5,19.5 C 68.4659,19.5045 64.4659,19.8379 60.5,20.5C 59.7001,14.9547 60.7001,9.62137 63.5,4.5C 67.6475,2.77952 70.4808,4.11285 72,8.5C 72.4986,12.1516 72.6653,15.8183 72.5,19.5 Z M 88.5,20.5 C 84.7549,19.6689 81.0883,19.6689 77.5,20.5C 77.3342,15.8215 77.5008,11.1548 78,6.5C 82.2297,2.22175 85.563,2.88842 88,8.5C 89.6961,12.4618 89.8628,16.4618 88.5,20.5 Z M 57.5,21.5 C 52.4124,23.079 47.7457,25.4123 43.5,28.5C 42.1908,24.5966 41.1908,20.5966 40.5,16.5C 42.1218,9.02489 45.7885,7.85822 51.5,13C 53.3867,15.9502 55.3867,18.7835 57.5,21.5 Z M 105.5,29.5 C 101.618,26.3912 97.2844,24.0579 92.5,22.5C 94.3584,16.4718 98.1917,12.1385 104,9.5C 107.824,10.8306 109.324,13.4973 108.5,17.5C 108.083,21.6605 107.083,25.6605 105.5,29.5 Z M 118.5,42.5 C 114.862,38.5259 111.195,34.5259 107.5,30.5C 111.63,26.6824 116.463,24.0157 122,22.5C 123.473,22.9031 124.806,23.5697 126,24.5C 126.652,27.594 126.318,30.594 125,33.5C 122.615,36.3785 120.448,39.3785 118.5,42.5 Z M 40.5,30.5 C 36.485,33.5164 33.1517,37.1831 30.5,41.5C 25.5646,37.2964 23.0646,31.963 23,25.5C 25.8408,23.4963 29.0074,22.9963 32.5,24C 35.4202,25.9461 38.0869,28.1128 40.5,30.5 Z M 27.5,44.5 C 25.2405,48.6874 23.2405,53.0207 21.5,57.5C 18.2111,55.3842 15.0444,53.0509 12,50.5C 7.84541,44.9632 9.17874,41.6298 16,40.5C 19.564,41.0793 23.064,41.9127 26.5,43C 27.056,43.3826 27.3893,43.8826 27.5,44.5 Z M 126.5,58.5 C 124.466,53.4282 122.133,48.4282 119.5,43.5C 124.579,42.2171 129.745,41.2171 135,40.5C 139.536,42.3097 140.536,45.3097 138,49.5C 134.267,52.7454 130.434,55.7454 126.5,58.5 Z M 20.5,60.5 C 19.8379,64.4659 19.5045,68.4659 19.5,72.5C 15.4862,72.6655 11.4862,72.4988 7.5,72C 2.29935,68.5735 2.29935,65.2402 7.5,62C 11.7305,60.7101 16.0638,60.2101 20.5,60.5 Z M 126.5,60.5 C 131.93,60.161 137.264,60.661 142.5,62C 146.566,65.7448 146.233,69.0782 141.5,72C 137.179,72.499 132.846,72.6657 128.5,72.5C 127.055,68.4957 126.389,64.4957 126.5,60.5 Z M 19.5,77.5 C 20.9231,81.4939 21.5898,85.4939 21.5,89.5C 15.928,90.0104 10.5947,89.1771 5.5,87C 2.67155,83.3075 3.33821,80.3075 7.5,78C 11.4862,77.5012 15.4862,77.3345 19.5,77.5 Z M 77.5,127.5 C 80.1194,128.803 82.4528,128.303 84.5,126C 88.7387,124.587 93.0721,123.587 97.5,123C 101.257,119.256 105.59,116.256 110.5,114C 113.983,108.854 117.817,104.021 122,99.5C 123.405,94.4523 124.905,89.4523 126.5,84.5C 126.453,78.7915 129.286,76.4582 135,77.5C 140.5,76.3254 144,78.3254 145.5,83.5C 145.471,85.0293 144.804,86.196 143.5,87C 138.013,88.8778 132.347,90.0445 126.5,90.5C 129.872,93.2765 133.372,95.9432 137,98.5C 141.033,104.767 139.366,108.434 132,109.5C 127.441,108.257 122.941,106.924 118.5,105.5C 120.696,110.232 123.196,114.898 126,119.5C 127.308,123.807 125.808,126.14 121.5,126.5C 119.423,126.308 117.423,125.808 115.5,125C 112.64,122.64 109.64,120.473 106.5,118.5C 106.167,119.167 105.833,119.833 105.5,120.5C 107.32,124.294 108.32,128.294 108.5,132.5C 108.68,139.376 105.68,141.21 99.5,138C 95.9753,134.443 92.8086,130.61 90,126.5C 88.7258,130.985 88.0591,135.652 88,140.5C 85.6576,147.517 82.3243,148.184 78,142.5C 77.5007,137.511 77.3341,132.511 77.5,127.5 Z M 22.5,91.5 C 23.9605,96.6204 26.2938,101.287 29.5,105.5C 25.7058,107.394 21.7058,108.728 17.5,109.5C 9.07922,108.904 7.41256,105.238 12.5,98.5C 15.6285,95.8027 18.9619,93.4694 22.5,91.5 Z M 30.5,106.5 C 32.6281,109.13 34.9614,111.63 37.5,114C 41.8105,116.158 45.8105,118.825 49.5,122C 56.0544,124.043 62.5544,126.209 69,128.5C 69.9021,128.257 70.7354,127.923 71.5,127.5C 72.8223,132.824 72.6557,138.157 71,143.5C 65.8299,147.597 62.4965,146.263 61,139.5C 60.501,135.179 60.3343,130.846 60.5,126.5C 59.325,126.281 58.325,126.614 57.5,127.5C 55.1034,131.787 52.1034,135.62 48.5,139C 42.7281,140.732 40.0614,138.565 40.5,132.5C 40.991,128.528 41.991,124.695 43.5,121C 43.1667,120.167 42.8333,119.333 42.5,118.5C 38.9704,121.195 35.3037,123.695 31.5,126C 28.3307,126.978 25.4973,126.478 23,124.5C 22.6581,118.867 24.6581,114.2 29,110.5C 29.7914,109.255 30.2914,107.922 30.5,106.5 Z"/></g>
<g><path style="opacity:0.998" fill="#fcfcfc" d="M 72.5,19.5 C 73.9187,20.4511 75.5853,20.7845 77.5,20.5C 81.0883,19.6689 84.7549,19.6689 88.5,20.5C 89.1834,22.1765 90.5168,22.8432 92.5,22.5C 97.2844,24.0579 101.618,26.3912 105.5,29.5C 105.842,30.3382 106.508,30.6716 107.5,30.5C 111.195,34.5259 114.862,38.5259 118.5,42.5C 118.5,43.1667 118.833,43.5 119.5,43.5C 122.133,48.4282 124.466,53.4282 126.5,58.5C 126.5,59.1667 126.5,59.8333 126.5,60.5C 126.389,64.4957 127.055,68.4957 128.5,72.5C 127.223,73.6936 126.556,75.3603 126.5,77.5C 125.984,80.0771 125.984,82.4104 126.5,84.5C 124.905,89.4523 123.405,94.4523 122,99.5C 117.817,104.021 113.983,108.854 110.5,114C 105.59,116.256 101.257,119.256 97.5,123C 93.0721,123.587 88.7387,124.587 84.5,126C 82.4528,128.303 80.1194,128.803 77.5,127.5C 75.5,127.5 73.5,127.5 71.5,127.5C 70.7354,127.923 69.9021,128.257 69,128.5C 62.5544,126.209 56.0544,124.043 49.5,122C 45.8105,118.825 41.8105,116.158 37.5,114C 34.9614,111.63 32.6281,109.13 30.5,106.5C 30.5,105.833 30.1667,105.5 29.5,105.5C 26.2938,101.287 23.9605,96.6204 22.5,91.5C 22.6716,90.5084 22.3382,89.8417 21.5,89.5C 21.5898,85.4939 20.9231,81.4939 19.5,77.5C 20.8333,75.8333 20.8333,74.1667 19.5,72.5C 19.5045,68.4659 19.8379,64.4659 20.5,60.5C 22.3818,59.779 22.7152,58.779 21.5,57.5C 23.2405,53.0207 25.2405,48.6874 27.5,44.5C 29.1436,44.1898 30.1436,43.1898 30.5,41.5C 33.1517,37.1831 36.485,33.5164 40.5,30.5C 42.0269,30.573 43.0269,29.9063 43.5,28.5C 47.7457,25.4123 52.4124,23.079 57.5,21.5C 58.779,22.7152 59.779,22.3818 60.5,20.5C 64.4659,19.8379 68.4659,19.5045 72.5,19.5 Z"/></g>
<g><path style="opacity:1" fill="#030303" d="M 52.5,53.5 C 66.9058,53.0514 81.2391,53.5514 95.5,55C 97.9167,56.6626 99.75,58.8293 101,61.5C 101.91,70.2438 101.576,78.9105 100,87.5C 97.8995,90.4668 95.0662,92.3002 91.5,93C 78.5,93.6667 65.5,93.6667 52.5,93C 49.3333,91.1667 46.8333,88.6667 45,85.5C 44.3333,77.5 44.3333,69.5 45,61.5C 47.0282,58.3078 49.5282,55.6411 52.5,53.5 Z"/></g>
<g><path style="opacity:1" fill="#f1f1f1" d="M 65.5,65.5 C 72.1173,66.9748 78.1173,69.8081 83.5,74C 77.8264,77.3384 71.8264,79.8384 65.5,81.5C 65.5,76.1667 65.5,70.8333 65.5,65.5 Z"/></g>
</svg>
