<svg xmlns="http://www.w3.org/2000/svg" width="1193" height="256" viewBox="0 0 1193 256" version="1.1"><path d="M 164.744 14.123 C 162.399 15.436, 162.460 21.775, 164.982 39 C 166.809 51.481, 166.959 58.046, 166.970 126 C 166.980 186.086, 166.705 201.599, 165.463 211 C 162.852 230.760, 162.753 233.285, 164.505 235.500 C 166.056 237.461, 167.280 237.500, 227.993 237.500 C 276.710 237.500, 290.171 237.229, 291.170 236.230 C 292.663 234.737, 293.704 188, 292.524 175.416 C 291.671 166.308, 290.301 164.563, 283.274 163.631 C 277.373 162.848, 271.314 158.862, 268.086 153.639 C 262.198 144.113, 251.528 138, 240.787 138 C 234.148 138, 233.745 139.780, 239.040 145.733 C 245.544 153.045, 248.372 159.958, 247.735 166.983 C 246.812 177.166, 241.641 185.784, 233.645 190.466 C 230.468 192.326, 227.377 193.053, 220.411 193.578 C 211.735 194.232, 211.224 194.156, 209.144 191.924 C 205.060 187.540, 204.803 183.870, 205.160 135.057 L 205.500 88.500 208.923 82.187 C 212.571 75.459, 219.941 68.091, 226.235 64.880 C 230.897 62.502, 241.731 59.031, 244.548 59.013 C 246.945 58.998, 261.119 54.104, 265.569 51.756 C 270.355 49.230, 278.515 41.997, 282.781 36.500 C 286.213 32.077, 290 24.522, 290 22.096 C 290 20.088, 285.048 20.268, 275.104 22.639 C 255.356 27.346, 232.606 26.930, 214 21.522 C 202.191 18.090, 186.733 14.914, 179.500 14.434 C 175.100 14.142, 170.372 13.733, 168.994 13.525 C 167.615 13.318, 165.703 13.587, 164.744 14.123 M 459.675 14.622 C 454.694 16.152, 448.848 21.298, 440.571 31.438 C 436.299 36.671, 433.078 38.425, 425.722 39.523 C 422.856 39.950, 420.588 40.901, 420.054 41.898 C 419.565 42.813, 418.877 46.923, 418.526 51.031 C 416.774 71.516, 410.632 86.540, 398.732 99.444 C 394.899 103.600, 391.176 107, 390.459 107 C 387.586 107, 386.919 100.145, 386.797 69.363 C 386.680 39.933, 386.770 38.314, 388.752 34.500 C 391.763 28.705, 398.015 23.079, 403.107 21.583 C 406.628 20.548, 407.560 19.793, 407.804 17.777 C 408.035 15.862, 407.558 15.114, 405.804 14.644 C 404.537 14.305, 391.800 14.028, 377.500 14.028 C 348.786 14.030, 347.649 14.238, 344.752 20.014 C 343.188 23.132, 343.003 27.162, 343.002 58.191 C 343.001 81.312, 343.350 93.098, 344.049 93.530 C 344.770 93.976, 344.775 94.566, 344.067 95.420 C 343.376 96.252, 343.127 118.644, 343.310 163.313 C 343.579 228.772, 343.621 230.015, 345.638 232.733 C 349.431 237.841, 350.322 237.969, 382.102 237.985 C 411.167 238, 411.764 237.959, 415.009 235.750 C 416.827 234.512, 419.658 231.830, 421.300 229.789 C 427.270 222.371, 425.716 210.337, 417.929 203.671 C 414.161 200.446, 406.416 197.251, 405.233 198.434 C 404.918 198.748, 405.728 201.285, 407.033 204.070 C 410.087 210.590, 409.159 212.379, 402.502 212.811 C 398.116 213.095, 397.374 212.797, 393.772 209.311 C 387.033 202.788, 386.998 202.623, 387.015 177.300 C 387.024 164.760, 387.426 153.876, 387.909 153.113 C 389.430 150.710, 398.280 152.295, 406.420 156.427 C 416.373 161.478, 422.849 168.179, 428.451 179.223 C 432.040 186.296, 433 189.239, 433 193.168 C 433 199.442, 437.027 211.577, 441.350 218.328 C 448.186 229.004, 461.343 238, 470.120 238 C 474.532 238, 474.737 235.644, 471.206 225.547 C 467.493 214.927, 467.289 213.609, 466.023 192 C 464.926 173.284, 463.507 166.648, 458.343 156.074 C 453.634 146.432, 444.246 136.928, 433.453 130.879 C 429.079 128.428, 425.500 125.905, 425.500 125.272 C 425.500 124.176, 434.722 117.747, 440.809 114.599 C 444.931 112.467, 457.196 99.918, 461.511 93.417 C 470.368 80.073, 473.888 66.254, 474.550 42.227 C 475.117 21.663, 474.180 15.399, 470.319 13.931 C 467.140 12.722, 465.513 12.828, 459.675 14.622 M 531.074 14.249 C 528.232 14.660, 524.585 15.681, 522.969 16.516 C 516.400 19.913, 509.984 28.831, 508.395 36.774 C 507.559 40.954, 509.088 40.994, 517 37 C 526.012 32.451, 530 33.211, 530 39.479 C 530 41.946, 528.698 43.844, 523.447 49.029 C 516.194 56.192, 509.751 64.147, 507.113 69.197 C 506.164 71.014, 503.676 75.143, 501.584 78.373 C 494.354 89.538, 489.822 102.620, 488.034 117.483 C 487.504 121.892, 486.801 141.700, 486.473 161.500 C 485.878 197.453, 485.413 204.753, 482.531 223.413 C 480.664 235.500, 480.654 234.512, 482.661 236.518 C 485.078 238.935, 491.768 237.691, 501.529 233.009 C 509.711 229.084, 519.257 220.916, 520.597 216.695 C 520.960 215.549, 522.040 213.912, 522.996 213.056 C 524.838 211.407, 528.504 202.525, 529.418 197.500 C 529.718 195.850, 530.174 188.366, 530.433 180.868 C 530.691 173.371, 531.189 166.096, 531.539 164.702 C 531.935 163.122, 534.214 160.813, 537.587 158.573 C 540.564 156.597, 543 154.647, 543 154.240 C 543 153.833, 544.013 153.420, 545.250 153.322 C 546.487 153.225, 549.969 152.672, 552.987 152.095 C 561.721 150.425, 561.448 149.526, 561.810 181.155 C 561.981 196.053, 561.863 208.914, 561.549 209.734 C 560.600 212.207, 558.330 209.466, 557.613 204.981 C 556.811 199.966, 554.519 199.728, 549.497 204.137 C 542.777 210.037, 541.302 215.531, 544.050 224.425 C 546.058 230.929, 549.492 235.114, 554.315 236.936 C 556.021 237.581, 566.667 238, 581.343 238 C 607.587 238, 609.102 237.714, 610.408 232.512 C 610.757 231.118, 610.021 224.470, 608.772 217.739 C 606.529 205.655, 606.500 204.477, 606.502 124.500 C 606.504 45.516, 606.558 43.227, 608.668 32.516 C 610.559 22.915, 610.661 21.125, 609.482 18.302 C 608.668 16.355, 607.212 14.862, 605.816 14.546 C 602.054 13.692, 536.708 13.432, 531.074 14.249 M 623.750 13.728 C 620.904 14.026, 620 14.568, 620 15.977 C 620 16.998, 619.456 18.015, 618.791 18.236 C 617.888 18.537, 618.194 21.543, 619.992 30.070 C 622.344 41.223, 622.420 43.054, 623.093 105.500 C 623.488 142.087, 624.222 171.682, 624.807 174.595 C 626.655 183.798, 628.958 190.364, 633.716 200 C 637.692 208.054, 639.859 210.959, 647.953 219.083 C 661.459 232.640, 670.606 237.183, 684.253 237.112 C 692.253 237.070, 697.044 235.693, 706.241 230.791 C 720.187 223.358, 734.514 204.230, 740.166 185.500 C 744.021 172.724, 744.149 170.559, 744.982 104.500 C 745.633 52.840, 746.113 37.961, 747.321 32 C 748.671 25.335, 749.380 18.694, 749.097 15.358 C 748.937 13.475, 744.103 12.837, 738.618 13.975 C 731.436 15.467, 725.645 19.638, 719.638 27.648 C 713.798 35.436, 707.965 39.009, 699.811 39.792 C 693.279 40.420, 692.159 42.539, 694.041 50.716 C 695.705 57.946, 696.509 151.872, 694.995 162.140 C 693.755 170.553, 690.584 178.880, 686.990 183.165 L 684.193 186.500 681.698 184.170 C 676.783 179.583, 673.852 170.834, 672.812 157.642 C 672.019 147.589, 672.313 73.199, 673.246 47.509 L 673.500 40.517 667.622 39.778 C 659.810 38.797, 654.103 35.282, 648.501 28.001 C 643.140 21.035, 639.341 17.932, 632.666 15.071 C 630.008 13.932, 627.759 13.076, 627.667 13.168 C 627.575 13.261, 625.813 13.513, 623.750 13.728 M 804 13.986 C 778.975 14.297, 758.439 14.652, 758.364 14.776 C 755.258 19.900, 755.205 21.409, 757.687 34 L 760.152 46.500 760.119 121.500 C 760.086 195.394, 759.452 213.927, 756.576 225 C 754.969 231.191, 755.617 233.795, 759.328 236.058 C 762.276 237.856, 764.600 237.993, 792.185 237.996 C 810.737 237.999, 822.926 237.601, 824.685 236.936 C 831.036 234.537, 837 225.663, 837 218.613 C 837 213.859, 832.568 205.896, 828.250 202.891 C 824.168 200.051, 817.223 197.444, 816.271 198.395 C 815.944 198.722, 816.878 201.197, 818.346 203.894 C 819.824 206.610, 820.739 209.516, 820.397 210.408 C 818.980 214.100, 810.147 213.263, 804.615 208.912 C 798.821 204.354, 798.500 202.671, 798.500 176.833 C 798.500 163.816, 798.848 152.818, 799.274 152.392 C 799.700 151.966, 803.429 152.186, 807.561 152.880 C 816.048 154.307, 824.095 158.934, 831.707 166.766 C 836.992 172.205, 842.360 183.284, 843.931 192 C 845.413 200.220, 847.716 208.496, 849.773 213 C 852.477 218.920, 859.982 228.860, 862.301 229.592 C 863.511 229.974, 865.066 231.091, 865.759 232.075 C 867.373 234.368, 877.044 238, 881.538 238 C 884.650 238, 884.999 237.722, 884.993 235.250 C 884.989 233.738, 883.659 228.637, 882.038 223.915 C 878.143 212.567, 877.130 205.343, 877.060 188.410 C 876.997 172.979, 876.022 168.683, 869.719 156.048 C 865.409 147.408, 854.826 136.873, 844.239 130.682 C 839.708 128.032, 836 125.518, 836 125.096 C 836 124.673, 840.163 121.904, 845.250 118.941 C 851.631 115.226, 857.150 110.911, 863.046 105.028 C 870.364 97.725, 872.333 94.991, 876.750 86 C 882.948 73.383, 885.108 65.453, 885.573 53.604 C 885.848 46.614, 885.485 43.401, 883.878 38.604 C 879.240 24.764, 867.554 15.230, 853.500 13.822 C 851.300 13.602, 829.025 13.675, 804 13.986 M 932.161 14 L 896.821 14.500 894.836 16.953 C 893.138 19.051, 892.951 20.270, 893.543 25.369 C 893.924 28.649, 894.633 32.720, 895.119 34.416 C 897.410 42.405, 898.160 72.309, 897.705 137.537 C 897.259 201.483, 897.107 206.121, 895.132 216 C 892.369 229.822, 892.413 232.504, 895.455 235.545 L 897.909 238 922.139 238 C 944.786 238, 946.655 237.861, 950.750 235.879 C 957.386 232.666, 960.500 227.299, 960.500 219.073 C 960.500 211.023, 957.768 205.942, 951.802 202.899 C 946.629 200.260, 945.191 200.922, 944.810 206.118 C 944.640 208.443, 943.967 210.520, 943.316 210.734 C 941.810 211.228, 941.309 196.329, 942 171.668 C 942.581 150.949, 942.713 150.654, 950.762 152.134 C 956.593 153.206, 966.811 158.106, 969.758 161.242 C 971.698 163.307, 972.012 165.039, 972.538 176.535 C 973.687 201.706, 977.434 212.778, 988.429 223.500 C 997.071 231.927, 1012.470 239.103, 1018.605 237.563 C 1023.023 236.454, 1023.309 234.019, 1020.647 220.221 C 1017.387 203.324, 1017.031 197.749, 1016.959 162.500 C 1016.880 123.464, 1015.990 113.135, 1011.533 99.531 C 1007.872 88.354, 1001.548 74.856, 997.229 69 C 994.576 65.403, 984.593 53.847, 977.502 46.164 C 971.914 40.110, 971.738 39.602, 974.171 36.510 C 976.760 33.218, 979.815 33.435, 988.456 37.522 C 991.575 38.998, 994.374 39.960, 994.675 39.659 C 994.975 39.358, 994.425 36.581, 993.452 33.488 C 990.315 23.513, 980.368 14.816, 971 13.858 C 969.075 13.661, 951.597 13.725, 932.161 14 M 1035.500 13.892 C 1032.035 14.419, 1031.340 14.968, 1030.306 18 C 1029.413 20.619, 1029.099 47.583, 1029.056 125.102 L 1029 228.704 1031.287 232.102 C 1032.545 233.971, 1034.765 236.072, 1036.219 236.772 C 1038.633 237.933, 1064.825 238.449, 1106 238.147 C 1110.675 238.112, 1123.896 238.104, 1135.380 238.127 C 1153.019 238.163, 1156.502 237.927, 1157.822 236.606 C 1159.158 235.270, 1159.432 230.505, 1159.707 203.772 C 1159.884 186.572, 1159.780 171.050, 1159.475 169.278 C 1158.993 166.480, 1158.366 165.916, 1154.710 164.993 C 1146.642 162.956, 1141.485 160.647, 1139.271 158.082 C 1138.045 156.662, 1134.811 152.741, 1132.085 149.370 C 1125.510 141.241, 1120.134 138.593, 1110.096 138.539 C 1105.560 138.515, 1102.545 138.927, 1102.311 139.603 C 1102.102 140.210, 1103.906 142.910, 1106.320 145.603 C 1112.522 152.523, 1114.252 156.412, 1114.786 164.639 C 1115.186 170.812, 1114.894 172.552, 1112.624 177.509 C 1111.181 180.662, 1110 183.910, 1110 184.728 C 1110 185.594, 1109.413 185.989, 1108.594 185.674 C 1107.821 185.378, 1106.358 186.052, 1105.344 187.174 C 1102.629 190.176, 1096.002 193.430, 1092 193.727 C 1082.496 194.431, 1080.015 194.240, 1077.533 192.614 C 1072.563 189.357, 1072.498 188.677, 1072.531 140 L 1072.562 94.500 1075.531 86.139 C 1080.527 72.068, 1089.896 64.195, 1106 60.533 C 1118.114 57.778, 1127.694 54.426, 1133.687 50.846 C 1141.368 46.258, 1151.023 36.310, 1154.956 28.932 C 1157.856 23.491, 1158.057 22.628, 1156.732 21.304 C 1155.408 19.979, 1153.783 20.129, 1142.370 22.627 C 1130.993 25.117, 1127.586 25.433, 1113 25.354 C 1095.742 25.261, 1092.352 24.679, 1064.500 17.032 C 1058.519 15.390, 1041.639 12.707, 1040.026 13.142 C 1039.737 13.220, 1037.700 13.557, 1035.500 13.892 M 22.359 15.461 C 19.597 17.395, 18.829 23.574, 20.519 30.251 C 23.523 42.113, 24.255 67.086, 23.628 136.327 C 23.141 190.057, 22.690 206.333, 21.456 214.638 C 20.600 220.405, 20.035 227.447, 20.200 230.287 C 20.453 234.635, 20.895 235.653, 23 236.724 C 24.956 237.719, 38.295 237.942, 84.332 237.748 L 143.165 237.500 146.082 234.234 L 149 230.968 148.998 201.234 C 148.997 174.929, 148.795 171.096, 147.248 168 C 146.150 165.801, 144.757 164.480, 143.500 164.446 C 136.574 164.259, 133.413 162.624, 126.893 155.857 C 122.912 151.726, 119.464 149, 118.220 149 C 112.756 149, 105.751 158.891, 103.988 169.094 C 101.193 185.274, 90.816 193.980, 74.306 193.994 C 69.195 193.999, 67.621 193.578, 65.306 191.587 L 62.500 189.173 62.500 172.122 C 62.500 150.969, 62.364 151.212, 73.144 153.011 C 80.353 154.215, 85.008 155.947, 88 158.542 C 88.825 159.257, 90.175 159.990, 91 160.171 C 92.288 160.454, 92.501 158.032, 92.510 143 C 92.515 133.375, 92.909 122.974, 93.386 119.887 C 94.459 112.927, 93.304 111.887, 88.192 115.213 C 83.240 118.437, 79.717 119.711, 72.106 121.031 C 63.727 122.485, 62.871 121.663, 62.221 111.545 C 61.953 107.370, 61.377 103.733, 60.941 103.463 C 60.504 103.194, 60.564 101.520, 61.074 99.743 C 61.583 97.967, 62.002 89.535, 62.004 81.007 C 62.009 58.986, 63.418 57.055, 78.452 58.463 C 92.347 59.765, 101.410 68.189, 103.856 82.072 C 104.984 88.478, 108.884 96.603, 112.429 99.933 C 113.621 101.053, 115.951 102.240, 117.607 102.571 C 120.284 103.107, 121.042 102.655, 124.457 98.488 C 130.467 91.152, 131.812 90.217, 139.740 87.864 C 145.593 86.126, 147.375 85.144, 148.090 83.262 C 149.323 80.019, 149.264 19.825, 148.025 16.565 L 147.050 14 85.747 14 C 33.606 14, 24.133 14.218, 22.359 15.461 M 127.846 19.487 C 127.560 19.774, 106.440 20.210, 80.913 20.457 C 34.369 20.907, 28.854 21.332, 27.613 24.565 C 27.312 25.349, 27.478 28.356, 27.980 31.245 C 30.060 43.200, 30.919 71.924, 30.969 131.212 C 31.012 180.654, 30.704 196.842, 29.514 207.712 C 28.238 219.376, 27.697 221.711, 26.003 222.872 C 22.900 224.997, 23.589 226.476, 28.750 228.768 C 33.300 230.790, 35.432 230.899, 79.500 231.365 C 104.800 231.633, 127.676 231.501, 130.335 231.071 C 133.781 230.515, 136.080 229.382, 138.335 227.128 L 141.500 223.964 141.500 198.424 L 141.500 172.884 134.600 169.972 C 130.805 168.370, 125.549 165.246, 122.921 163.030 C 120.292 160.813, 117.543 159, 116.811 159 C 114.616 159, 112.622 163.106, 111.385 170.174 C 109.191 182.707, 101.996 192.769, 91.500 197.984 C 87.177 200.132, 84.841 200.518, 74.253 200.837 L 62.006 201.206 58.634 197.834 L 55.263 194.463 54.528 177.801 C 53.747 160.102, 54.313 152.298, 56.718 147.606 L 58.201 144.712 67.786 145.341 C 73.057 145.687, 77.748 146.348, 78.209 146.809 C 78.670 147.270, 80.386 147.450, 82.022 147.210 L 84.997 146.773 84.872 137.137 C 84.803 131.837, 84.323 127.230, 83.806 126.899 C 83.288 126.569, 79.183 126.897, 74.683 127.629 C 62.226 129.655, 59.507 129.460, 57.073 126.365 C 55.071 123.821, 55 122.600, 55 90.881 L 55 58.032 57.916 54.766 L 60.831 51.500 72.389 51.165 C 83.123 50.853, 84.356 51.016, 89.681 53.454 C 97.611 57.084, 101.625 60.372, 105.449 66.368 C 108.271 70.792, 112 81.917, 112 85.910 C 112 87.982, 116.004 93, 117.657 93 C 118.494 93, 121.051 91.077, 123.339 88.727 C 125.847 86.152, 129.487 83.740, 132.500 82.658 C 142.888 78.928, 141.702 82.202, 142.222 55.826 C 142.553 39.015, 142.345 31.649, 141.477 29.453 C 140.080 25.922, 134.634 21, 132.123 21 C 131.175 21, 129.942 20.543, 129.383 19.983 C 128.824 19.424, 128.132 19.201, 127.846 19.487 M 361 20.586 C 355.741 22.209, 352.507 25.513, 351.052 30.752 C 350.480 32.813, 350.009 43.523, 350.006 54.550 C 350.002 69.178, 349.664 74.936, 348.758 75.842 C 347.770 76.830, 347.778 77.245, 348.801 77.877 C 349.824 78.509, 350.127 93.199, 350.292 150.085 C 350.482 215.272, 350.649 221.772, 352.206 224.615 C 355.413 230.471, 358.260 231.050, 384.747 231.223 C 406.165 231.363, 408.860 231.196, 411.640 229.554 C 415.614 227.206, 418 223.118, 418 218.655 C 418 214.204, 416.475 213.207, 413.676 215.829 C 406.982 222.098, 396.067 220.957, 387.627 213.104 C 380.481 206.454, 380.072 204.527, 379.851 176.409 C 379.683 155.034, 379.887 151.056, 381.291 148.371 C 382.190 146.650, 383.527 145.012, 384.262 144.730 C 386.003 144.061, 398.126 145.328, 399.766 146.350 C 400.463 146.783, 402.110 147.334, 403.426 147.572 C 406.080 148.054, 415.939 153.421, 420.956 157.117 C 425.043 160.126, 432.684 170.153, 435.237 175.854 C 436.309 178.249, 438.306 185.632, 439.674 192.260 C 443.062 208.669, 445.523 213.832, 453.665 221.621 C 463.072 230.621, 464.341 230.247, 461.492 219.310 C 460.663 216.127, 459.497 204.742, 458.901 194.011 C 457.665 171.767, 456.257 165.836, 449.836 155.810 C 442.600 144.512, 438.429 141.101, 421.800 132.881 C 407.097 125.614, 403.581 121.846, 410.250 120.505 C 415.854 119.379, 426.521 115.058, 432.318 111.567 C 445.489 103.636, 453.871 94.040, 460.903 78.844 C 465.833 68.188, 466.921 61.537, 467.241 40.113 C 467.465 25.099, 467.282 22.588, 465.905 21.715 C 462.122 19.321, 458.076 22.263, 445.188 36.781 C 441.304 41.155, 439.213 42.533, 433 44.814 L 425.500 47.567 424.837 57.033 C 423.803 71.792, 419.305 83.612, 409.379 97.661 C 402.484 107.420, 391.535 115.722, 383.250 117.472 L 380 118.159 379.959 107.829 C 379.743 54.232, 379.849 39.965, 380.482 37.084 C 380.886 35.243, 382.784 31.063, 384.700 27.794 C 386.616 24.525, 388.030 21.701, 387.842 21.518 C 387.654 21.335, 384.719 20.965, 381.321 20.696 C 377.923 20.426, 374.669 19.914, 374.092 19.557 C 373.514 19.200, 372.084 19.420, 370.913 20.046 C 369.374 20.870, 368.483 20.883, 367.693 20.093 C 366.425 18.825, 366.797 18.798, 361 20.586 M 573.721 19.613 C 573.498 19.836, 563.873 20.154, 552.332 20.321 C 533.891 20.587, 530.896 20.858, 527.613 22.562 C 525.559 23.628, 523.882 24.950, 523.888 25.500 C 523.894 26.050, 525.718 26.863, 527.942 27.307 C 530.781 27.874, 532.692 29.066, 534.355 31.307 C 540.065 39.001, 538.955 42.879, 527.598 54.901 C 513.422 69.908, 504.703 83.287, 500.162 97 C 494.829 113.106, 494.890 112.537, 494.001 154.500 C 493.042 199.773, 492.539 208.939, 490.390 220.267 C 489.555 224.669, 489.244 228.644, 489.699 229.099 C 490.724 230.124, 496.305 228.243, 501.118 225.250 C 503.108 224.012, 505.191 223, 505.748 223 C 506.304 223, 508.477 220.904, 510.577 218.341 C 512.807 215.619, 514.569 214.208, 514.816 214.947 C 515.048 215.643, 516.984 211.125, 519.119 204.907 C 522.229 195.847, 523 192.163, 523 186.360 C 523 182.377, 523.423 178.857, 523.940 178.537 C 524.518 178.180, 524.466 176.767, 523.805 174.871 C 523.015 172.603, 523.060 170.291, 523.977 166.143 C 524.988 161.573, 526.086 159.669, 529.754 156.131 C 537.530 148.630, 553.133 142.864, 561.439 144.423 C 568.214 145.694, 568.457 146.814, 568.835 178.448 C 569.193 208.494, 568.721 216.137, 566.357 218.501 C 563.893 220.964, 559.423 220.310, 555.565 216.923 C 553.637 215.230, 551.596 214.132, 551.030 214.482 C 550.463 214.832, 550 216.898, 550 219.074 C 550 222.183, 550.732 223.829, 553.421 226.765 L 556.842 230.500 577.528 230.808 C 596.335 231.088, 598.396 230.952, 600.220 229.308 C 602.401 227.342, 602.391 226.371, 600.001 207.918 C 599.236 202.013, 599.013 174.574, 599.286 119.918 C 599.620 53.103, 599.927 39.396, 601.224 33.540 C 602.862 26.146, 602.264 22.723, 599.115 21.465 C 598.227 21.111, 593.900 20.622, 589.500 20.379 C 585.100 20.135, 579.841 19.772, 577.813 19.572 C 575.785 19.371, 573.944 19.390, 573.721 19.613 M 908.805 20.627 C 900.738 22.451, 900.623 22.743, 902.509 36.592 C 904.966 54.634, 905.732 183.851, 903.509 205.419 C 902.654 213.713, 901.715 221.850, 901.422 223.500 C 901.096 225.335, 901.461 227.277, 902.362 228.500 C 903.739 230.370, 905.160 230.517, 924.168 230.766 C 945.958 231.051, 947.635 230.753, 951.180 225.977 C 953.402 222.981, 954.458 217.075, 953.126 215.086 C 952.347 213.923, 951.617 214.144, 949.012 216.336 C 942.825 221.542, 936.622 220.830, 935.487 214.784 C 935.146 212.964, 935.009 197.454, 935.183 180.317 C 935.499 149.244, 935.506 149.151, 937.836 146.673 C 940.807 143.512, 943.233 142.889, 946.324 144.493 C 947.673 145.193, 949.848 145.561, 951.157 145.310 C 956.635 144.263, 974.976 154.350, 978.055 160.103 C 978.701 161.310, 979.629 169.318, 980.117 177.899 C 981.512 202.404, 983.402 208.272, 993.092 218.175 C 999.075 224.289, 1011.277 231.123, 1013.049 229.351 C 1013.588 228.812, 1013.583 225.430, 1013.037 220.973 C 1012.534 216.863, 1011.622 209.450, 1011.010 204.500 C 1010.374 199.355, 1009.948 181.578, 1010.015 163 C 1010.081 144.874, 1009.645 126.298, 1009.030 121 C 1006.324 97.683, 996.793 77.963, 978.412 57.651 C 973.511 52.235, 968.715 46.610, 967.755 45.151 C 963.635 38.890, 967.135 30.342, 974.783 27.991 C 976.827 27.362, 979.133 26.644, 979.906 26.396 C 982.658 25.510, 974.999 21.141, 969.634 20.536 C 959.578 19.404, 913.918 19.472, 908.805 20.627 M 172.130 20.721 C 169.960 21.133, 169.812 21.523, 170.380 25.335 C 173.988 49.536, 174.076 52.348, 173.709 131.010 C 173.462 183.937, 172.969 211.160, 172.152 216.893 C 171.494 221.509, 171.221 226.122, 171.546 227.144 C 172.873 231.327, 174.275 231.434, 226.215 231.318 C 274.711 231.209, 276.012 231.155, 279.293 229.128 C 281.143 227.985, 283.184 225.892, 283.828 224.478 C 284.624 222.732, 285 213.913, 285 197.024 L 285 172.142 279.686 170.597 C 272.774 168.588, 267.338 164.568, 261.897 157.442 C 257.508 151.695, 252.482 147.185, 251.529 148.138 C 251.252 148.415, 251.968 151.310, 253.119 154.571 C 257.314 166.449, 253.692 181.995, 244.673 190.817 C 242.378 193.062, 237.800 196.146, 234.500 197.672 C 229.325 200.063, 226.951 200.498, 217.241 200.830 L 205.981 201.216 201.991 197.226 L 198 193.235 198.012 143.868 C 198.025 89.161, 198.016 89.253, 204.527 77.391 C 212.715 62.472, 223.601 55.560, 244.500 52.010 C 253.293 50.516, 264.113 45.358, 270.141 39.786 C 274.804 35.474, 277.638 31.305, 276.606 30.272 C 276.300 29.967, 273.226 30.343, 269.775 31.108 C 265.555 32.044, 257.770 32.454, 246 32.358 C 227.433 32.208, 224.196 31.701, 199.146 25.026 C 192.901 23.362, 186.290 22, 184.455 22 C 182.620 22, 180.840 21.550, 180.500 21 C 179.879 19.996, 176.545 19.885, 172.130 20.721 M 767.250 21.982 C 763.379 24.351, 763.121 26.935, 765.634 38.185 C 767.076 44.641, 767.255 54.783, 767.155 124.591 C 767.062 189.494, 766.769 205.625, 765.521 214.515 C 764.684 220.473, 764 226.152, 764 227.136 C 764 230.155, 770.162 230.931, 795.569 231.112 C 821.767 231.298, 823.462 231.010, 827.387 225.707 C 829.397 222.992, 830.263 215.930, 828.770 214.436 C 828.393 214.059, 826.702 214.914, 825.013 216.336 C 815.759 224.123, 798.859 218.329, 793.406 205.500 C 791.052 199.963, 790.193 158.096, 792.277 150.500 L 793.649 145.500 802.577 145.506 C 811.026 145.512, 811.982 145.742, 820.413 149.787 C 827.317 153.100, 830.806 155.574, 835.921 160.781 C 843.727 168.728, 847.304 175.531, 850.042 187.639 C 851.144 192.512, 852.502 198.525, 853.059 201 C 854.579 207.752, 858.564 215.299, 863.519 220.810 C 867.539 225.281, 873.357 228.976, 874.530 227.804 C 874.786 227.547, 874.077 223.099, 872.953 217.919 C 871.712 212.194, 870.587 201.832, 870.083 191.500 C 869.214 173.671, 868.515 170.537, 862.560 157.795 C 858.422 148.939, 848.705 140.581, 833.734 133.004 C 821.882 127.004, 818 124.518, 818 122.927 C 818 122.507, 821.038 121.191, 824.750 120.004 C 831.787 117.752, 844.354 111.776, 847.079 109.385 C 847.947 108.623, 849.200 108, 849.863 108 C 851.268 108, 862.399 96.335, 865.893 91.201 C 867.209 89.267, 870.041 83.593, 872.185 78.592 C 874.330 73.592, 876.658 68.274, 877.358 66.775 C 878.173 65.033, 878.586 60.164, 878.504 53.275 C 878.392 43.746, 878.061 41.843, 875.648 36.818 C 872.539 30.345, 867.653 25.619, 861.051 22.698 C 856.766 20.803, 853.998 20.665, 813.500 20.340 C 772.016 20.006, 770.385 20.064, 767.250 21.982 M 1037.542 21.346 C 1035.955 22.506, 1035.842 29.418, 1035.901 121.431 C 1035.971 231.919, 1035.526 225.142, 1043 229.472 C 1046.407 231.446, 1047.796 231.492, 1095 231.184 C 1129.773 230.958, 1144.182 230.534, 1145.910 229.684 C 1151.160 227.104, 1152.384 223.865, 1153.076 210.722 C 1153.886 195.361, 1153.067 174.475, 1151.576 172.435 C 1150.954 171.584, 1148.441 170.437, 1145.992 169.887 C 1140.227 168.591, 1136.222 165.457, 1128.842 156.466 C 1123.322 149.741, 1120.396 147.270, 1119.277 148.390 C 1119.037 148.630, 1119.551 151.602, 1120.420 154.994 C 1123.953 168.785, 1121.511 179.997, 1112.930 189.386 C 1107.490 195.338, 1102.316 198.202, 1094 199.862 C 1077.808 203.096, 1068.254 200.073, 1066.135 191.048 C 1064.835 185.508, 1064.708 139.413, 1065.987 137.025 C 1066.793 135.518, 1066.765 135, 1065.878 135 C 1064.076 135, 1065.551 92.353, 1067.596 85.317 C 1069.500 78.767, 1075.780 69.209, 1081.322 64.428 C 1087.560 59.045, 1093.213 56.537, 1107.019 53.028 C 1123.627 48.807, 1126.062 47.799, 1135.215 41.348 C 1142.058 36.526, 1147.090 30.756, 1145.681 29.348 C 1145.425 29.091, 1142.579 29.668, 1139.357 30.630 C 1131.143 33.082, 1103.014 33.102, 1091 30.664 C 1078.817 28.193, 1073.684 26.832, 1072.200 25.681 C 1071.485 25.126, 1069.685 24.522, 1068.200 24.337 C 1062.682 23.653, 1044.410 21.045, 1041.873 20.580 C 1040.429 20.316, 1038.480 20.660, 1037.542 21.346 M 626.450 22.269 C 626.172 22.994, 626.688 26.718, 627.598 30.544 C 629.008 36.474, 629.305 45.762, 629.615 93.500 C 629.982 150.016, 630.876 169.530, 633.601 180.500 C 634.421 183.800, 637.372 191.137, 640.158 196.804 C 649.954 216.726, 666.085 229.075, 683.339 229.862 C 691.011 230.212, 691.566 230.081, 699.584 226.015 C 712.155 219.641, 722.888 208.192, 729.930 193.644 C 731.779 189.824, 734.538 180.231, 736.441 171 C 736.838 169.075, 737.334 140.418, 737.544 107.317 C 737.847 59.412, 738.238 45.184, 739.462 37.577 C 741.568 24.494, 741.502 21, 739.150 21 C 736.221 21, 729.472 26.446, 725.148 32.300 C 718.932 40.714, 714.752 43.538, 703.204 47.128 C 702.161 47.452, 701.922 59.232, 701.976 107.545 C 702.040 164.555, 701.946 167.843, 700.092 173.231 C 696.725 183.020, 690.460 192.134, 685.922 193.847 C 682.063 195.303, 677.931 192.162, 673.024 184.040 C 665.362 171.359, 665.257 170.294, 665.256 104.986 L 665.255 47.617 661.823 46.428 C 652.835 43.317, 647.463 39.094, 640.692 29.820 C 636.171 23.628, 627.660 19.116, 626.450 22.269 M 827.437 43.130 C 819.265 50.536, 812.674 53.719, 802.991 54.935 C 791.238 56.411, 791.832 54.721, 791.239 88.387 C 790.778 114.529, 790.879 117.016, 792.419 117.607 C 793.422 117.992, 797.077 116.783, 801.463 114.616 C 817.869 106.508, 832.835 83.958, 835.056 64 C 835.515 59.875, 836.195 54.616, 836.568 52.313 C 837.339 47.555, 836.278 37, 835.029 37 C 834.574 37, 831.158 39.759, 827.437 43.130 M 819.500 57.535 C 815.520 59.447, 810.003 61.194, 806.714 61.583 C 802.928 62.030, 800.634 62.826, 800.078 63.883 C 798.870 66.179, 797.649 92.816, 798.476 98.824 C 798.856 101.586, 799.807 104.668, 800.590 105.673 C 801.917 107.377, 802.541 106.951, 809.850 99.356 C 815.737 93.238, 818.694 89.132, 821.736 82.856 C 825.822 74.422, 830.547 57.868, 829.584 55.359 C 828.843 53.427, 827.403 53.738, 819.500 57.535 M 560.991 66.648 C 547.839 75.399, 537.862 86.263, 531.736 98.500 C 527.918 106.127, 523.871 119.945, 523.977 124.989 C 524.030 127.470, 524.089 130.175, 524.110 131 C 524.130 131.825, 523.834 134.162, 523.452 136.194 C 522.617 140.628, 523.651 147, 525.205 147 C 525.818 147, 528.933 144.507, 532.128 141.459 C 539.314 134.605, 546.700 131.135, 557.316 129.626 C 568.966 127.971, 568.500 129.493, 568.500 93.086 C 568.500 74.193, 568.139 63.550, 567.491 63.333 C 566.936 63.146, 564.011 64.638, 560.991 66.648 M 935.395 65.414 C 935.129 66.106, 935.044 79.749, 935.206 95.733 C 935.471 121.955, 935.674 124.985, 937.282 126.761 C 938.925 128.575, 941.460 129.134, 953.500 130.336 C 956.616 130.647, 964.666 135.809, 971.904 142.137 C 975.639 145.402, 978.875 147.525, 979.367 147.033 C 979.845 146.555, 980.020 140.164, 979.756 132.832 C 978.961 110.753, 972.674 95.173, 958.500 80.155 C 948.397 69.449, 936.708 61.992, 935.395 65.414 M 553.614 81.109 C 543.610 89.915, 535.847 103.739, 531.881 119.812 C 528.989 131.531, 529.531 132.074, 539.425 127.375 C 543.367 125.503, 549.394 123.478, 552.820 122.875 C 556.711 122.189, 559.375 121.163, 559.919 120.139 C 561.332 117.478, 562.360 82.933, 561.120 79.750 C 560.531 78.237, 559.652 77, 559.166 77 C 558.679 77, 556.181 78.849, 553.614 81.109 M 943.035 78.934 C 941.493 81.816, 941.706 115.861, 943.286 118.983 C 944.557 121.495, 945.500 121.914, 954.500 123.957 C 957.250 124.581, 961.629 126.196, 964.232 127.546 C 970.724 130.913, 973 130.800, 973 127.112 C 973 122.255, 968.076 106.892, 964.184 99.603 C 960.801 93.270, 946.943 77, 944.931 77 C 944.458 77, 943.605 77.870, 943.035 78.934" stroke="none" fill="#f4f4f4" fill-rule="evenodd"/><path d="M 0 128.001 L 0 256.002 596.750 255.751 L 1193.500 255.500 1193.754 127.750 L 1194.008 -0 597.004 -0 L 0 0 0 128.001 M 0.485 128.500 C 0.485 198.900, 0.604 227.553, 0.750 192.172 C 0.896 156.792, 0.896 99.192, 0.750 64.172 C 0.604 29.153, 0.485 58.100, 0.485 128.500 M 164.744 14.123 C 162.399 15.436, 162.460 21.775, 164.982 39 C 166.809 51.481, 166.959 58.046, 166.970 126 C 166.980 186.086, 166.705 201.599, 165.463 211 C 162.852 230.760, 162.753 233.285, 164.505 235.500 C 166.056 237.461, 167.280 237.500, 227.993 237.500 C 276.710 237.500, 290.171 237.229, 291.170 236.230 C 292.663 234.737, 293.704 188, 292.524 175.416 C 291.671 166.308, 290.301 164.563, 283.274 163.631 C 277.373 162.848, 271.314 158.862, 268.086 153.639 C 262.198 144.113, 251.528 138, 240.787 138 C 234.148 138, 233.745 139.780, 239.040 145.733 C 245.544 153.045, 248.372 159.958, 247.735 166.983 C 246.812 177.166, 241.641 185.784, 233.645 190.466 C 230.468 192.326, 227.377 193.053, 220.411 193.578 C 211.735 194.232, 211.224 194.156, 209.144 191.924 C 205.060 187.540, 204.803 183.870, 205.160 135.057 L 205.500 88.500 208.923 82.187 C 212.571 75.459, 219.941 68.091, 226.235 64.880 C 230.897 62.502, 241.731 59.031, 244.548 59.013 C 246.945 58.998, 261.119 54.104, 265.569 51.756 C 270.355 49.230, 278.515 41.997, 282.781 36.500 C 286.213 32.077, 290 24.522, 290 22.096 C 290 20.088, 285.048 20.268, 275.104 22.639 C 255.356 27.346, 232.606 26.930, 214 21.522 C 202.191 18.090, 186.733 14.914, 179.500 14.434 C 175.100 14.142, 170.372 13.733, 168.994 13.525 C 167.615 13.318, 165.703 13.587, 164.744 14.123 M 459.675 14.622 C 454.694 16.152, 448.848 21.298, 440.571 31.438 C 436.299 36.671, 433.078 38.425, 425.722 39.523 C 422.856 39.950, 420.588 40.901, 420.054 41.898 C 419.565 42.813, 418.877 46.923, 418.526 51.031 C 416.774 71.516, 410.632 86.540, 398.732 99.444 C 394.899 103.600, 391.176 107, 390.459 107 C 387.586 107, 386.919 100.145, 386.797 69.363 C 386.680 39.933, 386.770 38.314, 388.752 34.500 C 391.763 28.705, 398.015 23.079, 403.107 21.583 C 406.628 20.548, 407.560 19.793, 407.804 17.777 C 408.035 15.862, 407.558 15.114, 405.804 14.644 C 404.537 14.305, 391.800 14.028, 377.500 14.028 C 348.786 14.030, 347.649 14.238, 344.752 20.014 C 343.188 23.132, 343.003 27.162, 343.002 58.191 C 343.001 81.312, 343.350 93.098, 344.049 93.530 C 344.770 93.976, 344.775 94.566, 344.067 95.420 C 343.376 96.252, 343.127 118.644, 343.310 163.313 C 343.579 228.772, 343.621 230.015, 345.638 232.733 C 349.431 237.841, 350.322 237.969, 382.102 237.985 C 411.167 238, 411.764 237.959, 415.009 235.750 C 416.827 234.512, 419.658 231.830, 421.300 229.789 C 427.270 222.371, 425.716 210.337, 417.929 203.671 C 414.161 200.446, 406.416 197.251, 405.233 198.434 C 404.918 198.748, 405.728 201.285, 407.033 204.070 C 410.087 210.590, 409.159 212.379, 402.502 212.811 C 398.116 213.095, 397.374 212.797, 393.772 209.311 C 387.033 202.788, 386.998 202.623, 387.015 177.300 C 387.024 164.760, 387.426 153.876, 387.909 153.113 C 389.430 150.710, 398.280 152.295, 406.420 156.427 C 416.373 161.478, 422.849 168.179, 428.451 179.223 C 432.040 186.296, 433 189.239, 433 193.168 C 433 199.442, 437.027 211.577, 441.350 218.328 C 448.186 229.004, 461.343 238, 470.120 238 C 474.532 238, 474.737 235.644, 471.206 225.547 C 467.493 214.927, 467.289 213.609, 466.023 192 C 464.926 173.284, 463.507 166.648, 458.343 156.074 C 453.634 146.432, 444.246 136.928, 433.453 130.879 C 429.079 128.428, 425.500 125.905, 425.500 125.272 C 425.500 124.176, 434.722 117.747, 440.809 114.599 C 444.931 112.467, 457.196 99.918, 461.511 93.417 C 470.368 80.073, 473.888 66.254, 474.550 42.227 C 475.117 21.663, 474.180 15.399, 470.319 13.931 C 467.140 12.722, 465.513 12.828, 459.675 14.622 M 531.074 14.249 C 528.232 14.660, 524.585 15.681, 522.969 16.516 C 516.400 19.913, 509.984 28.831, 508.395 36.774 C 507.559 40.954, 509.088 40.994, 517 37 C 526.012 32.451, 530 33.211, 530 39.479 C 530 41.946, 528.698 43.844, 523.447 49.029 C 516.194 56.192, 509.751 64.147, 507.113 69.197 C 506.164 71.014, 503.676 75.143, 501.584 78.373 C 494.354 89.538, 489.822 102.620, 488.034 117.483 C 487.504 121.892, 486.801 141.700, 486.473 161.500 C 485.878 197.453, 485.413 204.753, 482.531 223.413 C 480.664 235.500, 480.654 234.512, 482.661 236.518 C 485.078 238.935, 491.768 237.691, 501.529 233.009 C 509.711 229.084, 519.257 220.916, 520.597 216.695 C 520.960 215.549, 522.040 213.912, 522.996 213.056 C 524.838 211.407, 528.504 202.525, 529.418 197.500 C 529.718 195.850, 530.174 188.366, 530.433 180.868 C 530.691 173.371, 531.189 166.096, 531.539 164.702 C 531.935 163.122, 534.214 160.813, 537.587 158.573 C 540.564 156.597, 543 154.647, 543 154.240 C 543 153.833, 544.013 153.420, 545.250 153.322 C 546.487 153.225, 549.969 152.672, 552.987 152.095 C 561.721 150.425, 561.448 149.526, 561.810 181.155 C 561.981 196.053, 561.863 208.914, 561.549 209.734 C 560.600 212.207, 558.330 209.466, 557.613 204.981 C 556.811 199.966, 554.519 199.728, 549.497 204.137 C 542.777 210.037, 541.302 215.531, 544.050 224.425 C 546.058 230.929, 549.492 235.114, 554.315 236.936 C 556.021 237.581, 566.667 238, 581.343 238 C 607.587 238, 609.102 237.714, 610.408 232.512 C 610.757 231.118, 610.021 224.470, 608.772 217.739 C 606.529 205.655, 606.500 204.477, 606.502 124.500 C 606.504 45.516, 606.558 43.227, 608.668 32.516 C 610.559 22.915, 610.661 21.125, 609.482 18.302 C 608.668 16.355, 607.212 14.862, 605.816 14.546 C 602.054 13.692, 536.708 13.432, 531.074 14.249 M 623.750 13.728 C 620.904 14.026, 620 14.568, 620 15.977 C 620 16.998, 619.456 18.015, 618.791 18.236 C 617.888 18.537, 618.194 21.543, 619.992 30.070 C 622.344 41.223, 622.420 43.054, 623.093 105.500 C 623.488 142.087, 624.222 171.682, 624.807 174.595 C 626.655 183.798, 628.958 190.364, 633.716 200 C 637.692 208.054, 639.859 210.959, 647.953 219.083 C 661.459 232.640, 670.606 237.183, 684.253 237.112 C 692.253 237.070, 697.044 235.693, 706.241 230.791 C 720.187 223.358, 734.514 204.230, 740.166 185.500 C 744.021 172.724, 744.149 170.559, 744.982 104.500 C 745.633 52.840, 746.113 37.961, 747.321 32 C 748.671 25.335, 749.380 18.694, 749.097 15.358 C 748.937 13.475, 744.103 12.837, 738.618 13.975 C 731.436 15.467, 725.645 19.638, 719.638 27.648 C 713.798 35.436, 707.965 39.009, 699.811 39.792 C 693.279 40.420, 692.159 42.539, 694.041 50.716 C 695.705 57.946, 696.509 151.872, 694.995 162.140 C 693.755 170.553, 690.584 178.880, 686.990 183.165 L 684.193 186.500 681.698 184.170 C 676.783 179.583, 673.852 170.834, 672.812 157.642 C 672.019 147.589, 672.313 73.199, 673.246 47.509 L 673.500 40.517 667.622 39.778 C 659.810 38.797, 654.103 35.282, 648.501 28.001 C 643.140 21.035, 639.341 17.932, 632.666 15.071 C 630.008 13.932, 627.759 13.076, 627.667 13.168 C 627.575 13.261, 625.813 13.513, 623.750 13.728 M 804 13.986 C 778.975 14.297, 758.439 14.652, 758.364 14.776 C 755.258 19.900, 755.205 21.409, 757.687 34 L 760.152 46.500 760.119 121.500 C 760.086 195.394, 759.452 213.927, 756.576 225 C 754.969 231.191, 755.617 233.795, 759.328 236.058 C 762.276 237.856, 764.600 237.993, 792.185 237.996 C 810.737 237.999, 822.926 237.601, 824.685 236.936 C 831.036 234.537, 837 225.663, 837 218.613 C 837 213.859, 832.568 205.896, 828.250 202.891 C 824.168 200.051, 817.223 197.444, 816.271 198.395 C 815.944 198.722, 816.878 201.197, 818.346 203.894 C 819.824 206.610, 820.739 209.516, 820.397 210.408 C 818.980 214.100, 810.147 213.263, 804.615 208.912 C 798.821 204.354, 798.500 202.671, 798.500 176.833 C 798.500 163.816, 798.848 152.818, 799.274 152.392 C 799.700 151.966, 803.429 152.186, 807.561 152.880 C 816.048 154.307, 824.095 158.934, 831.707 166.766 C 836.992 172.205, 842.360 183.284, 843.931 192 C 845.413 200.220, 847.716 208.496, 849.773 213 C 852.477 218.920, 859.982 228.860, 862.301 229.592 C 863.511 229.974, 865.066 231.091, 865.759 232.075 C 867.373 234.368, 877.044 238, 881.538 238 C 884.650 238, 884.999 237.722, 884.993 235.250 C 884.989 233.738, 883.659 228.637, 882.038 223.915 C 878.143 212.567, 877.130 205.343, 877.060 188.410 C 876.997 172.979, 876.022 168.683, 869.719 156.048 C 865.409 147.408, 854.826 136.873, 844.239 130.682 C 839.708 128.032, 836 125.518, 836 125.096 C 836 124.673, 840.163 121.904, 845.250 118.941 C 851.631 115.226, 857.150 110.911, 863.046 105.028 C 870.364 97.725, 872.333 94.991, 876.750 86 C 882.948 73.383, 885.108 65.453, 885.573 53.604 C 885.848 46.614, 885.485 43.401, 883.878 38.604 C 879.240 24.764, 867.554 15.230, 853.500 13.822 C 851.300 13.602, 829.025 13.675, 804 13.986 M 932.161 14 L 896.821 14.500 894.836 16.953 C 893.138 19.051, 892.951 20.270, 893.543 25.369 C 893.924 28.649, 894.633 32.720, 895.119 34.416 C 897.410 42.405, 898.160 72.309, 897.705 137.537 C 897.259 201.483, 897.107 206.121, 895.132 216 C 892.369 229.822, 892.413 232.504, 895.455 235.545 L 897.909 238 922.139 238 C 944.786 238, 946.655 237.861, 950.750 235.879 C 957.386 232.666, 960.500 227.299, 960.500 219.073 C 960.500 211.023, 957.768 205.942, 951.802 202.899 C 946.629 200.260, 945.191 200.922, 944.810 206.118 C 944.640 208.443, 943.967 210.520, 943.316 210.734 C 941.810 211.228, 941.309 196.329, 942 171.668 C 942.581 150.949, 942.713 150.654, 950.762 152.134 C 956.593 153.206, 966.811 158.106, 969.758 161.242 C 971.698 163.307, 972.012 165.039, 972.538 176.535 C 973.687 201.706, 977.434 212.778, 988.429 223.500 C 997.071 231.927, 1012.470 239.103, 1018.605 237.563 C 1023.023 236.454, 1023.309 234.019, 1020.647 220.221 C 1017.387 203.324, 1017.031 197.749, 1016.959 162.500 C 1016.880 123.464, 1015.990 113.135, 1011.533 99.531 C 1007.872 88.354, 1001.548 74.856, 997.229 69 C 994.576 65.403, 984.593 53.847, 977.502 46.164 C 971.914 40.110, 971.738 39.602, 974.171 36.510 C 976.760 33.218, 979.815 33.435, 988.456 37.522 C 991.575 38.998, 994.374 39.960, 994.675 39.659 C 994.975 39.358, 994.425 36.581, 993.452 33.488 C 990.315 23.513, 980.368 14.816, 971 13.858 C 969.075 13.661, 951.597 13.725, 932.161 14 M 1035.500 13.892 C 1032.035 14.419, 1031.340 14.968, 1030.306 18 C 1029.413 20.619, 1029.099 47.583, 1029.056 125.102 L 1029 228.704 1031.287 232.102 C 1032.545 233.971, 1034.765 236.072, 1036.219 236.772 C 1038.633 237.933, 1064.825 238.449, 1106 238.147 C 1110.675 238.112, 1123.896 238.104, 1135.380 238.127 C 1153.019 238.163, 1156.502 237.927, 1157.822 236.606 C 1159.158 235.270, 1159.432 230.505, 1159.707 203.772 C 1159.884 186.572, 1159.780 171.050, 1159.475 169.278 C 1158.993 166.480, 1158.366 165.916, 1154.710 164.993 C 1146.642 162.956, 1141.485 160.647, 1139.271 158.082 C 1138.045 156.662, 1134.811 152.741, 1132.085 149.370 C 1125.510 141.241, 1120.134 138.593, 1110.096 138.539 C 1105.560 138.515, 1102.545 138.927, 1102.311 139.603 C 1102.102 140.210, 1103.906 142.910, 1106.320 145.603 C 1112.522 152.523, 1114.252 156.412, 1114.786 164.639 C 1115.186 170.812, 1114.894 172.552, 1112.624 177.509 C 1111.181 180.662, 1110 183.910, 1110 184.728 C 1110 185.594, 1109.413 185.989, 1108.594 185.674 C 1107.821 185.378, 1106.358 186.052, 1105.344 187.174 C 1102.629 190.176, 1096.002 193.430, 1092 193.727 C 1082.496 194.431, 1080.015 194.240, 1077.533 192.614 C 1072.563 189.357, 1072.498 188.677, 1072.531 140 L 1072.562 94.500 1075.531 86.139 C 1080.527 72.068, 1089.896 64.195, 1106 60.533 C 1118.114 57.778, 1127.694 54.426, 1133.687 50.846 C 1141.368 46.258, 1151.023 36.310, 1154.956 28.932 C 1157.856 23.491, 1158.057 22.628, 1156.732 21.304 C 1155.408 19.979, 1153.783 20.129, 1142.370 22.627 C 1130.993 25.117, 1127.586 25.433, 1113 25.354 C 1095.742 25.261, 1092.352 24.679, 1064.500 17.032 C 1058.519 15.390, 1041.639 12.707, 1040.026 13.142 C 1039.737 13.220, 1037.700 13.557, 1035.500 13.892 M 22.359 15.461 C 19.597 17.395, 18.829 23.574, 20.519 30.251 C 23.523 42.113, 24.255 67.086, 23.628 136.327 C 23.141 190.057, 22.690 206.333, 21.456 214.638 C 20.600 220.405, 20.035 227.447, 20.200 230.287 C 20.453 234.635, 20.895 235.653, 23 236.724 C 24.956 237.719, 38.295 237.942, 84.332 237.748 L 143.165 237.500 146.082 234.234 L 149 230.968 148.998 201.234 C 148.997 174.929, 148.795 171.096, 147.248 168 C 146.150 165.801, 144.757 164.480, 143.500 164.446 C 136.574 164.259, 133.413 162.624, 126.893 155.857 C 122.912 151.726, 119.464 149, 118.220 149 C 112.756 149, 105.751 158.891, 103.988 169.094 C 101.193 185.274, 90.816 193.980, 74.306 193.994 C 69.195 193.999, 67.621 193.578, 65.306 191.587 L 62.500 189.173 62.500 172.122 C 62.500 150.969, 62.364 151.212, 73.144 153.011 C 80.353 154.215, 85.008 155.947, 88 158.542 C 88.825 159.257, 90.175 159.990, 91 160.171 C 92.288 160.454, 92.501 158.032, 92.510 143 C 92.515 133.375, 92.909 122.974, 93.386 119.887 C 94.459 112.927, 93.304 111.887, 88.192 115.213 C 83.240 118.437, 79.717 119.711, 72.106 121.031 C 63.727 122.485, 62.871 121.663, 62.221 111.545 C 61.953 107.370, 61.377 103.733, 60.941 103.463 C 60.504 103.194, 60.564 101.520, 61.074 99.743 C 61.583 97.967, 62.002 89.535, 62.004 81.007 C 62.009 58.986, 63.418 57.055, 78.452 58.463 C 92.347 59.765, 101.410 68.189, 103.856 82.072 C 104.984 88.478, 108.884 96.603, 112.429 99.933 C 113.621 101.053, 115.951 102.240, 117.607 102.571 C 120.284 103.107, 121.042 102.655, 124.457 98.488 C 130.467 91.152, 131.812 90.217, 139.740 87.864 C 145.593 86.126, 147.375 85.144, 148.090 83.262 C 149.323 80.019, 149.264 19.825, 148.025 16.565 L 147.050 14 85.747 14 C 33.606 14, 24.133 14.218, 22.359 15.461 M 127.846 19.487 C 127.560 19.774, 106.440 20.210, 80.913 20.457 C 34.369 20.907, 28.854 21.332, 27.613 24.565 C 27.312 25.349, 27.478 28.356, 27.980 31.245 C 30.060 43.200, 30.919 71.924, 30.969 131.212 C 31.012 180.654, 30.704 196.842, 29.514 207.712 C 28.238 219.376, 27.697 221.711, 26.003 222.872 C 22.900 224.997, 23.589 226.476, 28.750 228.768 C 33.300 230.790, 35.432 230.899, 79.500 231.365 C 104.800 231.633, 127.676 231.501, 130.335 231.071 C 133.781 230.515, 136.080 229.382, 138.335 227.128 L 141.500 223.964 141.500 198.424 L 141.500 172.884 134.600 169.972 C 130.805 168.370, 125.549 165.246, 122.921 163.030 C 120.292 160.813, 117.543 159, 116.811 159 C 114.616 159, 112.622 163.106, 111.385 170.174 C 109.191 182.707, 101.996 192.769, 91.500 197.984 C 87.177 200.132, 84.841 200.518, 74.253 200.837 L 62.006 201.206 58.634 197.834 L 55.263 194.463 54.528 177.801 C 53.747 160.102, 54.313 152.298, 56.718 147.606 L 58.201 144.712 67.786 145.341 C 73.057 145.687, 77.748 146.348, 78.209 146.809 C 78.670 147.270, 80.386 147.450, 82.022 147.210 L 84.997 146.773 84.872 137.137 C 84.803 131.837, 84.323 127.230, 83.806 126.899 C 83.288 126.569, 79.183 126.897, 74.683 127.629 C 62.226 129.655, 59.507 129.460, 57.073 126.365 C 55.071 123.821, 55 122.600, 55 90.881 L 55 58.032 57.916 54.766 L 60.831 51.500 72.389 51.165 C 83.123 50.853, 84.356 51.016, 89.681 53.454 C 97.611 57.084, 101.625 60.372, 105.449 66.368 C 108.271 70.792, 112 81.917, 112 85.910 C 112 87.982, 116.004 93, 117.657 93 C 118.494 93, 121.051 91.077, 123.339 88.727 C 125.847 86.152, 129.487 83.740, 132.500 82.658 C 142.888 78.928, 141.702 82.202, 142.222 55.826 C 142.553 39.015, 142.345 31.649, 141.477 29.453 C 140.080 25.922, 134.634 21, 132.123 21 C 131.175 21, 129.942 20.543, 129.383 19.983 C 128.824 19.424, 128.132 19.201, 127.846 19.487 M 361 20.586 C 355.741 22.209, 352.507 25.513, 351.052 30.752 C 350.480 32.813, 350.009 43.523, 350.006 54.550 C 350.002 69.178, 349.664 74.936, 348.758 75.842 C 347.770 76.830, 347.778 77.245, 348.801 77.877 C 349.824 78.509, 350.127 93.199, 350.292 150.085 C 350.482 215.272, 350.649 221.772, 352.206 224.615 C 355.413 230.471, 358.260 231.050, 384.747 231.223 C 406.165 231.363, 408.860 231.196, 411.640 229.554 C 415.614 227.206, 418 223.118, 418 218.655 C 418 214.204, 416.475 213.207, 413.676 215.829 C 406.982 222.098, 396.067 220.957, 387.627 213.104 C 380.481 206.454, 380.072 204.527, 379.851 176.409 C 379.683 155.034, 379.887 151.056, 381.291 148.371 C 382.190 146.650, 383.527 145.012, 384.262 144.730 C 386.003 144.061, 398.126 145.328, 399.766 146.350 C 400.463 146.783, 402.110 147.334, 403.426 147.572 C 406.080 148.054, 415.939 153.421, 420.956 157.117 C 425.043 160.126, 432.684 170.153, 435.237 175.854 C 436.309 178.249, 438.306 185.632, 439.674 192.260 C 443.062 208.669, 445.523 213.832, 453.665 221.621 C 463.072 230.621, 464.341 230.247, 461.492 219.310 C 460.663 216.127, 459.497 204.742, 458.901 194.011 C 457.665 171.767, 456.257 165.836, 449.836 155.810 C 442.600 144.512, 438.429 141.101, 421.800 132.881 C 407.097 125.614, 403.581 121.846, 410.250 120.505 C 415.854 119.379, 426.521 115.058, 432.318 111.567 C 445.489 103.636, 453.871 94.040, 460.903 78.844 C 465.833 68.188, 466.921 61.537, 467.241 40.113 C 467.465 25.099, 467.282 22.588, 465.905 21.715 C 462.122 19.321, 458.076 22.263, 445.188 36.781 C 441.304 41.155, 439.213 42.533, 433 44.814 L 425.500 47.567 424.837 57.033 C 423.803 71.792, 419.305 83.612, 409.379 97.661 C 402.484 107.420, 391.535 115.722, 383.250 117.472 L 380 118.159 379.959 107.829 C 379.743 54.232, 379.849 39.965, 380.482 37.084 C 380.886 35.243, 382.784 31.063, 384.700 27.794 C 386.616 24.525, 388.030 21.701, 387.842 21.518 C 387.654 21.335, 384.719 20.965, 381.321 20.696 C 377.923 20.426, 374.669 19.914, 374.092 19.557 C 373.514 19.200, 372.084 19.420, 370.913 20.046 C 369.374 20.870, 368.483 20.883, 367.693 20.093 C 366.425 18.825, 366.797 18.798, 361 20.586 M 573.721 19.613 C 573.498 19.836, 563.873 20.154, 552.332 20.321 C 533.891 20.587, 530.896 20.858, 527.613 22.562 C 525.559 23.628, 523.882 24.950, 523.888 25.500 C 523.894 26.050, 525.718 26.863, 527.942 27.307 C 530.781 27.874, 532.692 29.066, 534.355 31.307 C 540.065 39.001, 538.955 42.879, 527.598 54.901 C 513.422 69.908, 504.703 83.287, 500.162 97 C 494.829 113.106, 494.890 112.537, 494.001 154.500 C 493.042 199.773, 492.539 208.939, 490.390 220.267 C 489.555 224.669, 489.244 228.644, 489.699 229.099 C 490.724 230.124, 496.305 228.243, 501.118 225.250 C 503.108 224.012, 505.191 223, 505.748 223 C 506.304 223, 508.477 220.904, 510.577 218.341 C 512.807 215.619, 514.569 214.208, 514.816 214.947 C 515.048 215.643, 516.984 211.125, 519.119 204.907 C 522.229 195.847, 523 192.163, 523 186.360 C 523 182.377, 523.423 178.857, 523.940 178.537 C 524.518 178.180, 524.466 176.767, 523.805 174.871 C 523.015 172.603, 523.060 170.291, 523.977 166.143 C 524.988 161.573, 526.086 159.669, 529.754 156.131 C 537.530 148.630, 553.133 142.864, 561.439 144.423 C 568.214 145.694, 568.457 146.814, 568.835 178.448 C 569.193 208.494, 568.721 216.137, 566.357 218.501 C 563.893 220.964, 559.423 220.310, 555.565 216.923 C 553.637 215.230, 551.596 214.132, 551.030 214.482 C 550.463 214.832, 550 216.898, 550 219.074 C 550 222.183, 550.732 223.829, 553.421 226.765 L 556.842 230.500 577.528 230.808 C 596.335 231.088, 598.396 230.952, 600.220 229.308 C 602.401 227.342, 602.391 226.371, 600.001 207.918 C 599.236 202.013, 599.013 174.574, 599.286 119.918 C 599.620 53.103, 599.927 39.396, 601.224 33.540 C 602.862 26.146, 602.264 22.723, 599.115 21.465 C 598.227 21.111, 593.900 20.622, 589.500 20.379 C 585.100 20.135, 579.841 19.772, 577.813 19.572 C 575.785 19.371, 573.944 19.390, 573.721 19.613 M 908.805 20.627 C 900.738 22.451, 900.623 22.743, 902.509 36.592 C 904.966 54.634, 905.732 183.851, 903.509 205.419 C 902.654 213.713, 901.715 221.850, 901.422 223.500 C 901.096 225.335, 901.461 227.277, 902.362 228.500 C 903.739 230.370, 905.160 230.517, 924.168 230.766 C 945.958 231.051, 947.635 230.753, 951.180 225.977 C 953.402 222.981, 954.458 217.075, 953.126 215.086 C 952.347 213.923, 951.617 214.144, 949.012 216.336 C 942.825 221.542, 936.622 220.830, 935.487 214.784 C 935.146 212.964, 935.009 197.454, 935.183 180.317 C 935.499 149.244, 935.506 149.151, 937.836 146.673 C 940.807 143.512, 943.233 142.889, 946.324 144.493 C 947.673 145.193, 949.848 145.561, 951.157 145.310 C 956.635 144.263, 974.976 154.350, 978.055 160.103 C 978.701 161.310, 979.629 169.318, 980.117 177.899 C 981.512 202.404, 983.402 208.272, 993.092 218.175 C 999.075 224.289, 1011.277 231.123, 1013.049 229.351 C 1013.588 228.812, 1013.583 225.430, 1013.037 220.973 C 1012.534 216.863, 1011.622 209.450, 1011.010 204.500 C 1010.374 199.355, 1009.948 181.578, 1010.015 163 C 1010.081 144.874, 1009.645 126.298, 1009.030 121 C 1006.324 97.683, 996.793 77.963, 978.412 57.651 C 973.511 52.235, 968.715 46.610, 967.755 45.151 C 963.635 38.890, 967.135 30.342, 974.783 27.991 C 976.827 27.362, 979.133 26.644, 979.906 26.396 C 982.658 25.510, 974.999 21.141, 969.634 20.536 C 959.578 19.404, 913.918 19.472, 908.805 20.627 M 172.130 20.721 C 169.960 21.133, 169.812 21.523, 170.380 25.335 C 173.988 49.536, 174.076 52.348, 173.709 131.010 C 173.462 183.937, 172.969 211.160, 172.152 216.893 C 171.494 221.509, 171.221 226.122, 171.546 227.144 C 172.873 231.327, 174.275 231.434, 226.215 231.318 C 274.711 231.209, 276.012 231.155, 279.293 229.128 C 281.143 227.985, 283.184 225.892, 283.828 224.478 C 284.624 222.732, 285 213.913, 285 197.024 L 285 172.142 279.686 170.597 C 272.774 168.588, 267.338 164.568, 261.897 157.442 C 257.508 151.695, 252.482 147.185, 251.529 148.138 C 251.252 148.415, 251.968 151.310, 253.119 154.571 C 257.314 166.449, 253.692 181.995, 244.673 190.817 C 242.378 193.062, 237.800 196.146, 234.500 197.672 C 229.325 200.063, 226.951 200.498, 217.241 200.830 L 205.981 201.216 201.991 197.226 L 198 193.235 198.012 143.868 C 198.025 89.161, 198.016 89.253, 204.527 77.391 C 212.715 62.472, 223.601 55.560, 244.500 52.010 C 253.293 50.516, 264.113 45.358, 270.141 39.786 C 274.804 35.474, 277.638 31.305, 276.606 30.272 C 276.300 29.967, 273.226 30.343, 269.775 31.108 C 265.555 32.044, 257.770 32.454, 246 32.358 C 227.433 32.208, 224.196 31.701, 199.146 25.026 C 192.901 23.362, 186.290 22, 184.455 22 C 182.620 22, 180.840 21.550, 180.500 21 C 179.879 19.996, 176.545 19.885, 172.130 20.721 M 767.250 21.982 C 763.379 24.351, 763.121 26.935, 765.634 38.185 C 767.076 44.641, 767.255 54.783, 767.155 124.591 C 767.062 189.494, 766.769 205.625, 765.521 214.515 C 764.684 220.473, 764 226.152, 764 227.136 C 764 230.155, 770.162 230.931, 795.569 231.112 C 821.767 231.298, 823.462 231.010, 827.387 225.707 C 829.397 222.992, 830.263 215.930, 828.770 214.436 C 828.393 214.059, 826.702 214.914, 825.013 216.336 C 815.759 224.123, 798.859 218.329, 793.406 205.500 C 791.052 199.963, 790.193 158.096, 792.277 150.500 L 793.649 145.500 802.577 145.506 C 811.026 145.512, 811.982 145.742, 820.413 149.787 C 827.317 153.100, 830.806 155.574, 835.921 160.781 C 843.727 168.728, 847.304 175.531, 850.042 187.639 C 851.144 192.512, 852.502 198.525, 853.059 201 C 854.579 207.752, 858.564 215.299, 863.519 220.810 C 867.539 225.281, 873.357 228.976, 874.530 227.804 C 874.786 227.547, 874.077 223.099, 872.953 217.919 C 871.712 212.194, 870.587 201.832, 870.083 191.500 C 869.214 173.671, 868.515 170.537, 862.560 157.795 C 858.422 148.939, 848.705 140.581, 833.734 133.004 C 821.882 127.004, 818 124.518, 818 122.927 C 818 122.507, 821.038 121.191, 824.750 120.004 C 831.787 117.752, 844.354 111.776, 847.079 109.385 C 847.947 108.623, 849.200 108, 849.863 108 C 851.268 108, 862.399 96.335, 865.893 91.201 C 867.209 89.267, 870.041 83.593, 872.185 78.592 C 874.330 73.592, 876.658 68.274, 877.358 66.775 C 878.173 65.033, 878.586 60.164, 878.504 53.275 C 878.392 43.746, 878.061 41.843, 875.648 36.818 C 872.539 30.345, 867.653 25.619, 861.051 22.698 C 856.766 20.803, 853.998 20.665, 813.500 20.340 C 772.016 20.006, 770.385 20.064, 767.250 21.982 M 1037.542 21.346 C 1035.955 22.506, 1035.842 29.418, 1035.901 121.431 C 1035.971 231.919, 1035.526 225.142, 1043 229.472 C 1046.407 231.446, 1047.796 231.492, 1095 231.184 C 1129.773 230.958, 1144.182 230.534, 1145.910 229.684 C 1151.160 227.104, 1152.384 223.865, 1153.076 210.722 C 1153.886 195.361, 1153.067 174.475, 1151.576 172.435 C 1150.954 171.584, 1148.441 170.437, 1145.992 169.887 C 1140.227 168.591, 1136.222 165.457, 1128.842 156.466 C 1123.322 149.741, 1120.396 147.270, 1119.277 148.390 C 1119.037 148.630, 1119.551 151.602, 1120.420 154.994 C 1123.953 168.785, 1121.511 179.997, 1112.930 189.386 C 1107.490 195.338, 1102.316 198.202, 1094 199.862 C 1077.808 203.096, 1068.254 200.073, 1066.135 191.048 C 1064.835 185.508, 1064.708 139.413, 1065.987 137.025 C 1066.793 135.518, 1066.765 135, 1065.878 135 C 1064.076 135, 1065.551 92.353, 1067.596 85.317 C 1069.500 78.767, 1075.780 69.209, 1081.322 64.428 C 1087.560 59.045, 1093.213 56.537, 1107.019 53.028 C 1123.627 48.807, 1126.062 47.799, 1135.215 41.348 C 1142.058 36.526, 1147.090 30.756, 1145.681 29.348 C 1145.425 29.091, 1142.579 29.668, 1139.357 30.630 C 1131.143 33.082, 1103.014 33.102, 1091 30.664 C 1078.817 28.193, 1073.684 26.832, 1072.200 25.681 C 1071.485 25.126, 1069.685 24.522, 1068.200 24.337 C 1062.682 23.653, 1044.410 21.045, 1041.873 20.580 C 1040.429 20.316, 1038.480 20.660, 1037.542 21.346 M 626.450 22.269 C 626.172 22.994, 626.688 26.718, 627.598 30.544 C 629.008 36.474, 629.305 45.762, 629.615 93.500 C 629.982 150.016, 630.876 169.530, 633.601 180.500 C 634.421 183.800, 637.372 191.137, 640.158 196.804 C 649.954 216.726, 666.085 229.075, 683.339 229.862 C 691.011 230.212, 691.566 230.081, 699.584 226.015 C 712.155 219.641, 722.888 208.192, 729.930 193.644 C 731.779 189.824, 734.538 180.231, 736.441 171 C 736.838 169.075, 737.334 140.418, 737.544 107.317 C 737.847 59.412, 738.238 45.184, 739.462 37.577 C 741.568 24.494, 741.502 21, 739.150 21 C 736.221 21, 729.472 26.446, 725.148 32.300 C 718.932 40.714, 714.752 43.538, 703.204 47.128 C 702.161 47.452, 701.922 59.232, 701.976 107.545 C 702.040 164.555, 701.946 167.843, 700.092 173.231 C 696.725 183.020, 690.460 192.134, 685.922 193.847 C 682.063 195.303, 677.931 192.162, 673.024 184.040 C 665.362 171.359, 665.257 170.294, 665.256 104.986 L 665.255 47.617 661.823 46.428 C 652.835 43.317, 647.463 39.094, 640.692 29.820 C 636.171 23.628, 627.660 19.116, 626.450 22.269 M 827.437 43.130 C 819.265 50.536, 812.674 53.719, 802.991 54.935 C 791.238 56.411, 791.832 54.721, 791.239 88.387 C 790.778 114.529, 790.879 117.016, 792.419 117.607 C 793.422 117.992, 797.077 116.783, 801.463 114.616 C 817.869 106.508, 832.835 83.958, 835.056 64 C 835.515 59.875, 836.195 54.616, 836.568 52.313 C 837.339 47.555, 836.278 37, 835.029 37 C 834.574 37, 831.158 39.759, 827.437 43.130 M 819.500 57.535 C 815.520 59.447, 810.003 61.194, 806.714 61.583 C 802.928 62.030, 800.634 62.826, 800.078 63.883 C 798.870 66.179, 797.649 92.816, 798.476 98.824 C 798.856 101.586, 799.807 104.668, 800.590 105.673 C 801.917 107.377, 802.541 106.951, 809.850 99.356 C 815.737 93.238, 818.694 89.132, 821.736 82.856 C 825.822 74.422, 830.547 57.868, 829.584 55.359 C 828.843 53.427, 827.403 53.738, 819.500 57.535 M 560.991 66.648 C 547.839 75.399, 537.862 86.263, 531.736 98.500 C 527.918 106.127, 523.871 119.945, 523.977 124.989 C 524.030 127.470, 524.089 130.175, 524.110 131 C 524.130 131.825, 523.834 134.162, 523.452 136.194 C 522.617 140.628, 523.651 147, 525.205 147 C 525.818 147, 528.933 144.507, 532.128 141.459 C 539.314 134.605, 546.700 131.135, 557.316 129.626 C 568.966 127.971, 568.500 129.493, 568.500 93.086 C 568.500 74.193, 568.139 63.550, 567.491 63.333 C 566.936 63.146, 564.011 64.638, 560.991 66.648 M 935.395 65.414 C 935.129 66.106, 935.044 79.749, 935.206 95.733 C 935.471 121.955, 935.674 124.985, 937.282 126.761 C 938.925 128.575, 941.460 129.134, 953.500 130.336 C 956.616 130.647, 964.666 135.809, 971.904 142.137 C 975.639 145.402, 978.875 147.525, 979.367 147.033 C 979.845 146.555, 980.020 140.164, 979.756 132.832 C 978.961 110.753, 972.674 95.173, 958.500 80.155 C 948.397 69.449, 936.708 61.992, 935.395 65.414 M 553.614 81.109 C 543.610 89.915, 535.847 103.739, 531.881 119.812 C 528.989 131.531, 529.531 132.074, 539.425 127.375 C 543.367 125.503, 549.394 123.478, 552.820 122.875 C 556.711 122.189, 559.375 121.163, 559.919 120.139 C 561.332 117.478, 562.360 82.933, 561.120 79.750 C 560.531 78.237, 559.652 77, 559.166 77 C 558.679 77, 556.181 78.849, 553.614 81.109 M 943.035 78.934 C 941.493 81.816, 941.706 115.861, 943.286 118.983 C 944.557 121.495, 945.500 121.914, 954.500 123.957 C 957.250 124.581, 961.629 126.196, 964.232 127.546 C 970.724 130.913, 973 130.800, 973 127.112 C 973 122.255, 968.076 106.892, 964.184 99.603 C 960.801 93.270, 946.943 77, 944.931 77 C 944.458 77, 943.605 77.870, 943.035 78.934" stroke="none" fill="#050606" fill-rule="evenodd"/></svg>