<?xml version="1.0" encoding="UTF-8"?>
<!DOCTYPE svg PUBLIC "-//W3C//DTD SVG 1.1//EN" "http://www.w3.org/Graphics/SVG/1.1/DTD/svg11.dtd">
<svg xmlns="http://www.w3.org/2000/svg" version="1.1" width="605px" height="436px" style="shape-rendering:geometricPrecision; text-rendering:geometricPrecision; image-rendering:optimizeQuality; fill-rule:evenodd; clip-rule:evenodd" xmlns:xlink="http://www.w3.org/1999/xlink">
<g><path style="opacity:0.357" fill="#fefffe" d="M 367.5,-0.5 C 382.167,-0.5 396.833,-0.5 411.5,-0.5C 450.772,3.64682 486.772,16.8135 519.5,39C 558.404,68.9301 584.238,107.763 597,155.5C 600.057,168.199 602.557,180.865 604.5,193.5C 604.5,210.167 604.5,226.833 604.5,243.5C 599.004,296.316 578.004,341.816 541.5,380C 508.489,409.002 470.156,427.002 426.5,434C 414.578,435.75 403.578,433.416 393.5,427C 379.175,409.239 380.842,392.906 398.5,378C 408.447,372.528 418.78,367.861 429.5,364C 453.173,354.154 472.173,338.654 486.5,317.5C 485.033,317.277 483.533,316.944 482,316.5C 481.506,318.134 481.34,319.801 481.5,321.5C 480.5,321.5 479.5,321.5 478.5,321.5C 478.5,315.833 478.5,310.167 478.5,304.5C 486.312,302.132 489.812,305.132 489,313.5C 489.692,312.975 490.192,312.308 490.5,311.5C 488.195,306.14 489.695,303.807 495,304.5C 522.614,256.215 522.281,208.215 494,160.5C 489.333,153.167 484.667,145.833 480,138.5C 438.632,88.8606 386.799,73.0272 324.5,91C 307.079,97.5375 291.413,106.871 277.5,119C 268.069,129.766 257.402,139.099 245.5,147C 221.117,156.469 207.117,148.469 203.5,123C 205.429,106.084 211.595,90.9175 222,77.5C 251.233,41.6566 288.399,17.8233 333.5,6C 344.886,3.35494 356.219,1.18827 367.5,-0.5 Z M 482.5,306.5 C 484.89,306.685 485.89,308.018 485.5,310.5C 485.821,313.512 484.488,314.845 481.5,314.5C 481.279,311.721 481.612,309.054 482.5,306.5 Z"/></g>
<g><path style="opacity:0.891" fill="#fefffe" d="M 98.5,207.5 C 107.012,207.795 115.012,209.961 122.5,214C 123.8,218.45 123.8,222.95 122.5,227.5C 116.161,221.997 108.828,218.664 100.5,217.5C 89.6702,218.493 82.5035,224.16 79,234.5C 75.9033,245.66 76.57,256.66 81,267.5C 89.31,279.62 100.143,282.453 113.5,276C 116.5,273.833 119.5,271.667 122.5,269.5C 123.8,274.05 123.8,278.55 122.5,283C 108.645,291.098 94.645,291.431 80.5,284C 69.9192,274.656 64.9192,262.823 65.5,248.5C 64.9962,234.833 69.6629,223.333 79.5,214C 85.4588,210.292 91.7921,208.126 98.5,207.5 Z"/></g>
<g><path style="opacity:0.901" fill="#fefffe" d="M 135.5,209.5 C 146.838,209.333 158.172,209.5 169.5,210C 182.463,213.421 186.963,221.588 183,234.5C 181.221,238.612 178.388,241.778 174.5,244C 186.107,249.098 190.274,257.931 187,270.5C 183.993,279.505 177.827,285.005 168.5,287C 157.505,287.5 146.505,287.667 135.5,287.5C 135.5,261.5 135.5,235.5 135.5,209.5 Z M 146.5,219.5 C 153.175,219.334 159.842,219.5 166.5,220C 171.141,221.439 173.141,224.606 172.5,229.5C 173.037,234.928 170.704,238.428 165.5,240C 159.175,240.5 152.842,240.666 146.5,240.5C 146.5,233.5 146.5,226.5 146.5,219.5 Z M 146.5,250.5 C 154.253,250.104 161.92,250.604 169.5,252C 176.435,256.509 178.268,262.676 175,270.5C 172.76,273.402 169.927,275.569 166.5,277C 159.844,277.711 153.178,278.211 146.5,278.5C 146.5,269.167 146.5,259.833 146.5,250.5 Z"/></g>
<g><path style="opacity:0.955" fill="#fefffe" d="M 200.5,209.5 C 207.167,209.5 213.833,209.5 220.5,209.5C 220.5,230.5 220.5,251.5 220.5,272.5C 230.833,272.5 241.167,272.5 251.5,272.5C 251.5,277.5 251.5,282.5 251.5,287.5C 234.5,287.5 217.5,287.5 200.5,287.5C 200.5,261.5 200.5,235.5 200.5,209.5 Z"/></g>
<g><path style="opacity:0.939" fill="#fefffe" d="M 262.5,209.5 C 269.167,209.5 275.833,209.5 282.5,209.5C 282.333,227.836 282.5,246.17 283,264.5C 284.346,270.679 288.179,273.679 294.5,273.5C 300.821,273.679 304.654,270.679 306,264.5C 306.5,246.17 306.667,227.836 306.5,209.5C 313.167,209.5 319.833,209.5 326.5,209.5C 326.667,228.503 326.5,247.503 326,266.5C 324.363,278.134 317.863,285.301 306.5,288C 295.485,290.594 284.818,289.594 274.5,285C 269.694,281.574 266.194,277.074 264,271.5C 262.547,250.887 262.047,230.22 262.5,209.5 Z"/></g>
<g><path style="opacity:0.939" fill="#fefffe" d="M 343.5,209.5 C 351.86,209.169 360.193,209.502 368.5,210.5C 375.921,223.674 383.088,237.007 390,250.5C 390.5,236.837 390.667,223.171 390.5,209.5C 396.833,209.5 403.167,209.5 409.5,209.5C 409.5,235.5 409.5,261.5 409.5,287.5C 402.8,287.83 396.134,287.497 389.5,286.5C 380.333,269.5 371.167,252.5 362,235.5C 361.5,252.83 361.333,270.163 361.5,287.5C 355.5,287.5 349.5,287.5 343.5,287.5C 343.5,261.5 343.5,235.5 343.5,209.5 Z"/></g>
<g><path style="opacity:0.943" fill="#fefffe" d="M 444.5,209.5 C 451.863,209.169 459.197,209.503 466.5,210.5C 475.039,236.118 483.373,261.784 491.5,287.5C 484.5,287.5 477.5,287.5 470.5,287.5C 469.581,282.406 468.247,277.406 466.5,272.5C 458.862,271.503 451.196,271.169 443.5,271.5C 442.167,276.833 440.833,282.167 439.5,287.5C 432.833,287.5 426.167,287.5 419.5,287.5C 427.433,261.368 435.766,235.368 444.5,209.5 Z M 454.5,234.5 C 457.603,241.481 459.937,248.815 461.5,256.5C 457.116,256.826 452.783,256.492 448.5,255.5C 450.91,248.604 452.91,241.604 454.5,234.5 Z"/></g>
<g><path style="opacity:0.612" fill="#fefffe" d="M 280.5,299.5 C 281.5,299.5 282.5,299.5 283.5,299.5C 283.336,302.187 283.503,304.854 284,307.5C 285.258,304.945 287.091,304.278 289.5,305.5C 288.352,307.149 287.019,308.649 285.5,310C 287.543,311.708 289.21,313.708 290.5,316C 287.196,317.042 285.029,315.875 284,312.5C 283.51,313.793 283.343,315.127 283.5,316.5C 282.5,316.5 281.5,316.5 280.5,316.5C 280.5,310.833 280.5,305.167 280.5,299.5 Z"/></g>
<g><path style="opacity:0.605" fill="#fefffe" d="M 330.5,299.5 C 333.206,299.575 335.873,299.908 338.5,300.5C 338.5,301.5 338.5,302.5 338.5,303.5C 336.051,302.943 333.718,302.943 331.5,303.5C 333.396,304.466 335.396,304.799 337.5,304.5C 337.5,308.5 337.5,312.5 337.5,316.5C 336.5,316.5 335.5,316.5 334.5,316.5C 334.5,313.167 334.5,309.833 334.5,306.5C 333.5,306.5 332.5,306.5 331.5,306.5C 331.5,309.833 331.5,313.167 331.5,316.5C 330.5,316.5 329.5,316.5 328.5,316.5C 328.759,312.76 328.426,309.094 327.5,305.5C 328.129,303.259 329.129,301.259 330.5,299.5 Z"/></g>
<g><path style="opacity:0.648" fill="#fefffe" d="M 357.5,299.5 C 358.5,299.5 359.5,299.5 360.5,299.5C 360.5,305.167 360.5,310.833 360.5,316.5C 351.868,318.699 348.701,315.365 351,306.5C 352.684,304.299 354.684,303.633 357,304.5C 357.494,302.866 357.66,301.199 357.5,299.5 Z M 354.5,306.5 C 355.5,306.5 356.5,306.5 357.5,306.5C 357.663,308.857 357.497,311.19 357,313.5C 354.355,314.708 353.188,313.708 353.5,310.5C 353.623,309.075 353.957,307.742 354.5,306.5 Z"/></g>
<g><path style="opacity:0.6" fill="#fefffe" d="M 436.5,299.5 C 437.5,299.5 438.5,299.5 439.5,299.5C 439.336,302.187 439.503,304.854 440,307.5C 441.525,304.913 443.692,304.08 446.5,305C 441.512,308.825 441.845,312.491 447.5,316C 444.113,316.81 441.613,315.644 440,312.5C 439.51,313.793 439.343,315.127 439.5,316.5C 438.5,316.5 437.5,316.5 436.5,316.5C 436.5,310.833 436.5,305.167 436.5,299.5 Z"/></g>
<g><path style="opacity:0.607" fill="#fefffe" d="M 70.5,300.5 C 73.1873,300.336 75.854,300.503 78.5,301C 79.731,302.183 79.731,303.349 78.5,304.5C 73.8379,301.659 70.8379,302.992 69.5,308.5C 70.5313,314.506 73.5313,315.839 78.5,312.5C 78.7262,305.41 82.0595,302.91 88.5,305C 90.923,308.379 91.0897,311.879 89,315.5C 85.7291,318.197 82.7291,317.864 80,314.5C 76.8516,317.551 73.3516,318.051 69.5,316C 65.2848,310.483 65.6181,305.316 70.5,300.5 Z M 83.5,306.5 C 86.1213,306.477 87.4546,307.811 87.5,310.5C 87.2528,313.779 85.7528,314.779 83,313.5C 82.2967,311.071 82.4634,308.738 83.5,306.5 Z"/></g>
<g><path style="opacity:0.62" fill="#fefffe" d="M 139.5,306.5 C 138.167,306.5 136.833,306.5 135.5,306.5C 135.337,308.857 135.503,311.19 136,313.5C 137.011,314.337 138.178,314.67 139.5,314.5C 137.844,318.153 135.844,318.32 133.5,315C 132.062,310.147 131.728,305.314 132.5,300.5C 133.5,300.5 134.5,300.5 135.5,300.5C 135.5,301.833 135.5,303.167 135.5,304.5C 137.483,304.157 138.817,304.824 139.5,306.5 Z"/></g>
<g><path style="opacity:0.661" fill="#fefffe" d="M 165.5,300.5 C 168.518,300.335 171.518,300.502 174.5,301C 175.574,301.739 176.241,302.739 176.5,304C 176.144,307.436 175.977,310.936 176,314.5C 175.5,315 175,315.5 174.5,316C 171.518,316.498 168.518,316.665 165.5,316.5C 165.5,311.167 165.5,305.833 165.5,300.5 Z M 168.5,303.5 C 175.167,304.5 175.167,305.5 168.5,306.5C 168.5,305.5 168.5,304.5 168.5,303.5 Z M 168.5,309.5 C 170.167,309.5 171.833,309.5 173.5,309.5C 173.838,313.151 172.172,314.817 168.5,314.5C 168.5,312.833 168.5,311.167 168.5,309.5 Z"/></g>
<g><path style="opacity:0.482" fill="#fefffe" d="M 199.5,300.5 C 200.5,300.5 201.5,300.5 202.5,300.5C 202.5,301.5 202.5,302.5 202.5,303.5C 201.5,303.5 200.5,303.5 199.5,303.5C 199.5,302.5 199.5,301.5 199.5,300.5 Z"/></g>
<g><path style="opacity:0.719" fill="#fefffe" d="M 253.5,300.5 C 254.5,300.5 255.5,300.5 256.5,300.5C 256.5,305.167 256.5,309.833 256.5,314.5C 258.604,314.201 260.604,314.534 262.5,315.5C 259.572,316.484 256.572,316.817 253.5,316.5C 253.5,311.167 253.5,305.833 253.5,300.5 Z"/></g>
<g><path style="opacity:0.481" fill="#fefffe" d="M 263.5,300.5 C 264.5,300.5 265.5,300.5 266.5,300.5C 266.5,301.5 266.5,302.5 266.5,303.5C 265.5,303.5 264.5,303.5 263.5,303.5C 263.5,302.5 263.5,301.5 263.5,300.5 Z"/></g>
<g><path style="opacity:0.629" fill="#fefffe" d="M 297.5,300.5 C 298.5,300.5 299.5,300.5 300.5,300.5C 300.334,304.514 300.501,308.514 301,312.5C 302.549,315.003 304.216,315.003 306,312.5C 306.499,308.514 306.666,304.514 306.5,300.5C 307.5,300.5 308.5,300.5 309.5,300.5C 309.666,304.846 309.499,309.179 309,313.5C 305.822,318.371 302.155,318.704 298,314.5C 297.501,309.845 297.334,305.179 297.5,300.5 Z"/></g>
<g><path style="opacity:0.482" fill="#fefffe" d="M 323.5,300.5 C 324.5,300.5 325.5,300.5 326.5,300.5C 326.5,301.5 326.5,302.5 326.5,303.5C 325.5,303.5 324.5,303.5 323.5,303.5C 323.5,302.5 323.5,301.5 323.5,300.5 Z"/></g>
<g><path style="opacity:0.623" fill="#fefffe" d="M 369.5,300.5 C 371.144,300.286 372.644,300.62 374,301.5C 375.333,304.167 376.667,306.833 378,309.5C 378.498,306.518 378.665,303.518 378.5,300.5C 379.5,300.5 380.5,300.5 381.5,300.5C 381.5,305.833 381.5,311.167 381.5,316.5C 380.022,316.762 378.689,316.429 377.5,315.5C 376,312.5 374.5,309.5 373,306.5C 372.502,309.817 372.335,313.15 372.5,316.5C 371.5,316.5 370.5,316.5 369.5,316.5C 369.5,311.167 369.5,305.833 369.5,300.5 Z"/></g>
<g><path style="opacity:0.612" fill="#fefffe" d="M 416.5,307.5 C 415.379,309.954 414.546,312.621 414,315.5C 412.989,316.337 411.822,316.67 410.5,316.5C 410.01,309.192 408.676,308.859 406.5,315.5C 405.5,316.833 404.5,316.833 403.5,315.5C 402.358,312.601 401.692,309.601 401.5,306.5C 400.167,306.5 398.833,306.5 397.5,306.5C 397.337,308.857 397.503,311.19 398,313.5C 402.251,314.619 402.417,315.952 398.5,317.5C 396.866,317.032 395.7,316.032 395,314.5C 394.817,311.635 394.317,308.969 393.5,306.5C 394.15,304.565 394.483,302.565 394.5,300.5C 395.5,300.5 396.5,300.5 397.5,300.5C 397.5,301.833 397.5,303.167 397.5,304.5C 399.527,304.338 401.527,304.505 403.5,305C 404.717,310.406 405.884,310.573 407,305.5C 408.011,304.663 409.178,304.33 410.5,304.5C 411.5,312.5 412.5,312.5 413.5,304.5C 414.5,304.5 415.5,304.5 416.5,304.5C 416.5,305.5 416.5,306.5 416.5,307.5 Z"/></g>
<g><path style="opacity:0.624" fill="#fefffe" d="M 457.5,300.5 C 458.833,300.5 460.167,300.5 461.5,300.5C 462.69,305.571 464.19,310.571 466,315.5C 466.499,311.848 466.665,308.182 466.5,304.5C 476.281,302.461 479.281,306.127 475.5,315.5C 473.735,317.053 471.902,317.386 470,316.5C 469.506,318.134 469.34,319.801 469.5,321.5C 468.5,321.5 467.5,321.5 466.5,321.5C 466.5,319.833 466.5,318.167 466.5,316.5C 465.167,316.5 463.833,316.5 462.5,316.5C 462.241,312.932 460.241,311.599 456.5,312.5C 456.752,315.932 455.419,316.932 452.5,315.5C 454.372,310.55 456.039,305.55 457.5,300.5 Z M 458.5,305.5 C 461.383,307.982 461.05,309.149 457.5,309C 458.337,307.989 458.67,306.822 458.5,305.5 Z M 471.5,306.5 C 475.473,309.131 475.473,311.797 471.5,314.5C 468.843,311.867 468.843,309.201 471.5,306.5 Z"/></g>
<g><path style="opacity:0.616" fill="#fefffe" d="M 96.5,303.5 C 98.8439,304.672 101.177,304.672 103.5,303.5C 104.748,304.04 105.915,304.707 107,305.5C 107.499,309.152 107.665,312.818 107.5,316.5C 106.5,316.5 105.5,316.5 104.5,316.5C 104.905,312.952 104.405,309.619 103,306.5C 101.595,309.619 101.095,312.952 101.5,316.5C 100.5,316.5 99.5,316.5 98.5,316.5C 98.8158,313.022 98.3158,309.688 97,306.5C 94.7518,309.351 93.9185,312.685 94.5,316.5C 93.5,316.5 92.5,316.5 91.5,316.5C 91.5,312.5 91.5,308.5 91.5,304.5C 93.4147,304.784 95.0813,304.451 96.5,303.5 Z"/></g>
<g><path style="opacity:0.645" fill="#fefffe" d="M 114.5,303.5 C 118.348,304.176 120.015,306.509 119.5,310.5C 119.565,315.28 117.398,317.28 113,316.5C 112.506,318.134 112.34,319.801 112.5,321.5C 111.5,321.5 110.5,321.5 109.5,321.5C 109.5,315.833 109.5,310.167 109.5,304.5C 111.415,304.784 113.081,304.451 114.5,303.5 Z M 113.5,306.5 C 115.89,306.685 116.89,308.018 116.5,310.5C 116.821,313.512 115.488,314.845 112.5,314.5C 112.279,311.721 112.612,309.054 113.5,306.5 Z"/></g>
<g><path style="opacity:0.611" fill="#fefffe" d="M 139.5,314.5 C 139.5,311.833 139.5,309.167 139.5,306.5C 146.064,301.782 149.398,303.449 149.5,311.5C 147.076,311.192 144.743,311.526 142.5,312.5C 144.099,314.729 146.099,315.062 148.5,313.5C 149.739,315.007 149.405,316.174 147.5,317C 144.389,317.612 141.723,316.779 139.5,314.5 Z M 143.5,306.5 C 144.675,306.281 145.675,306.614 146.5,307.5C 145.277,308.614 143.944,308.781 142.5,308C 143.056,307.617 143.389,307.117 143.5,306.5 Z"/></g>
<g><path style="opacity:0.623" fill="#fefffe" d="M 193.5,303.5 C 194.708,304.234 196.041,304.567 197.5,304.5C 197.719,305.675 197.386,306.675 196.5,307.5C 195.109,306.355 193.776,306.355 192.5,307.5C 193.824,308.935 195.49,309.935 197.5,310.5C 199.051,314.392 197.718,316.726 193.5,317.5C 190.422,317.376 189.422,316.043 190.5,313.5C 192.343,314.939 194.01,314.772 195.5,313C 193.649,312.163 191.816,311.329 190,310.5C 188.689,306.738 189.856,304.405 193.5,303.5 Z"/></g>
<g><path style="opacity:0.643" fill="#fefffe" d="M 209.5,303.5 C 211.311,303.572 212.644,304.405 213.5,306C 214.382,309.441 214.716,312.941 214.5,316.5C 213.5,316.5 212.5,316.5 211.5,316.5C 211.665,313.482 211.498,310.482 211,307.5C 210,306.167 209,306.167 208,307.5C 207.502,310.482 207.335,313.482 207.5,316.5C 206.5,316.5 205.5,316.5 204.5,316.5C 204.5,312.5 204.5,308.5 204.5,304.5C 206.415,304.784 208.081,304.451 209.5,303.5 Z"/></g>
<g><path style="opacity:0.589" fill="#fefffe" d="M 220.5,303.5 C 223.703,303.682 225.536,305.348 226,308.5C 226.333,305.5 228,303.833 231,303.5C 232.356,304.38 233.856,304.714 235.5,304.5C 235.5,305.5 235.5,306.5 235.5,307.5C 227.959,306.885 227.793,307.885 235,310.5C 236.418,314.442 235.084,316.775 231,317.5C 229.56,316.852 228.06,316.519 226.5,316.5C 226.5,315.5 226.5,314.5 226.5,313.5C 234.303,314.501 234.47,313.501 227,310.5C 224.2,311.125 221.366,311.792 218.5,312.5C 220.099,314.729 222.099,315.062 224.5,313.5C 225.578,316.043 224.578,317.376 221.5,317.5C 215.81,315.973 213.976,312.306 216,306.5C 217.409,305.219 218.909,304.219 220.5,303.5 Z M 219.5,306.5 C 220.675,306.281 221.675,306.614 222.5,307.5C 221.277,308.614 219.944,308.781 218.5,308C 219.056,307.617 219.389,307.117 219.5,306.5 Z"/></g>
<g><path style="opacity:0.639" fill="#fefffe" d="M 240.5,303.5 C 241.708,304.234 243.041,304.567 244.5,304.5C 244.719,305.675 244.386,306.675 243.5,307.5C 242.109,306.355 240.776,306.355 239.5,307.5C 242.029,308.737 244.029,310.571 245.5,313C 244.711,315.697 242.878,317.197 240,317.5C 237.226,317.102 236.393,315.769 237.5,313.5C 244.03,313.773 244.03,312.939 237.5,311C 235.612,307.186 236.612,304.686 240.5,303.5 Z"/></g>
<g><path style="opacity:0.627" fill="#fefffe" d="M 273.5,303.5 C 275.582,303.624 277.082,304.624 278,306.5C 278.498,309.817 278.665,313.15 278.5,316.5C 277.5,316.5 276.5,316.5 275.5,316.5C 275.905,312.952 275.405,309.619 274,306.5C 271.752,309.351 270.918,312.685 271.5,316.5C 270.5,316.5 269.5,316.5 268.5,316.5C 268.5,312.5 268.5,308.5 268.5,304.5C 270.415,304.784 272.081,304.451 273.5,303.5 Z"/></g>
<g><path style="opacity:0.628" fill="#fefffe" d="M 316.5,303.5 C 318.582,303.624 320.082,304.624 321,306.5C 321.498,309.817 321.665,313.15 321.5,316.5C 320.5,316.5 319.5,316.5 318.5,316.5C 318.905,312.952 318.405,309.619 317,306.5C 314.752,309.351 313.918,312.685 314.5,316.5C 313.5,316.5 312.5,316.5 311.5,316.5C 311.5,312.5 311.5,308.5 311.5,304.5C 313.415,304.784 315.081,304.451 316.5,303.5 Z"/></g>
<g><path style="opacity:0.604" fill="#fefffe" d="M 343.5,303.5 C 348.861,303.564 350.861,306.231 349.5,311.5C 347.076,311.192 344.743,311.526 342.5,312.5C 342.887,313.72 343.72,314.387 345,314.5C 346.44,313.852 347.94,313.519 349.5,313.5C 347.2,318.512 344.033,318.845 340,314.5C 338.518,309.774 339.685,306.107 343.5,303.5 Z M 343.5,306.5 C 344.756,306.461 345.756,306.961 346.5,308C 345.167,308.667 343.833,308.667 342.5,308C 343.056,307.617 343.389,307.117 343.5,306.5 Z"/></g>
<g><path style="opacity:0.575" fill="#fefffe" d="M 393.5,306.5 C 393.5,308.167 393.5,309.833 393.5,311.5C 390.813,311.336 388.146,311.503 385.5,312C 387.692,314.786 390.359,315.286 393.5,313.5C 393.5,314.5 393.5,315.5 393.5,316.5C 383.48,318.314 380.48,314.481 384.5,305C 387.874,303.01 390.874,303.51 393.5,306.5 Z M 387.5,306.5 C 388.756,306.461 389.756,306.961 390.5,308C 389.167,308.667 387.833,308.667 386.5,308C 387.056,307.617 387.389,307.117 387.5,306.5 Z"/></g>
<g><path style="opacity:0.611" fill="#fefffe" d="M 416.5,307.5 C 419.644,303.171 423.144,302.837 427,306.5C 428.894,311.985 427.227,315.651 422,317.5C 417.34,315.855 415.506,312.521 416.5,307.5 Z M 421.5,306.5 C 423.89,306.685 424.89,308.018 424.5,310.5C 423.182,315.705 421.515,315.705 419.5,310.5C 419.752,308.927 420.418,307.594 421.5,306.5 Z"/></g>
<g><path style="opacity:0.627" fill="#fefffe" d="M 120.5,304.5 C 121.5,304.5 122.5,304.5 123.5,304.5C 123.336,307.187 123.503,309.854 124,312.5C 124.605,314.481 125.605,314.815 127,313.5C 127.498,310.518 127.665,307.518 127.5,304.5C 128.5,304.5 129.5,304.5 130.5,304.5C 130.5,308.5 130.5,312.5 130.5,316.5C 127.763,317.213 125.096,317.213 122.5,316.5C 120.745,312.722 120.078,308.722 120.5,304.5 Z"/></g>
<g><path style="opacity:0.617" fill="#fefffe" d="M 151.5,304.5 C 153.833,304.5 156.167,304.5 158.5,304.5C 158.5,305.5 158.5,306.5 158.5,307.5C 157.167,307.5 155.833,307.5 154.5,307.5C 154.5,310.5 154.5,313.5 154.5,316.5C 153.5,316.5 152.5,316.5 151.5,316.5C 151.5,312.5 151.5,308.5 151.5,304.5 Z"/></g>
<g><path style="opacity:0.627" fill="#fefffe" d="M 177.5,304.5 C 178.5,304.5 179.5,304.5 180.5,304.5C 180.336,307.187 180.503,309.854 181,312.5C 181.605,314.481 182.605,314.815 184,313.5C 184.498,310.518 184.665,307.518 184.5,304.5C 185.5,304.5 186.5,304.5 187.5,304.5C 187.5,308.5 187.5,312.5 187.5,316.5C 184.763,317.213 182.096,317.213 179.5,316.5C 177.745,312.722 177.078,308.722 177.5,304.5 Z"/></g>
<g><path style="opacity:0.613" fill="#fefffe" d="M 199.5,304.5 C 200.5,304.5 201.5,304.5 202.5,304.5C 202.5,308.5 202.5,312.5 202.5,316.5C 201.5,316.5 200.5,316.5 199.5,316.5C 199.5,312.5 199.5,308.5 199.5,304.5 Z"/></g>
<g><path style="opacity:0.614" fill="#fefffe" d="M 263.5,304.5 C 264.5,304.5 265.5,304.5 266.5,304.5C 266.5,308.5 266.5,312.5 266.5,316.5C 265.5,316.5 264.5,316.5 263.5,316.5C 263.5,312.5 263.5,308.5 263.5,304.5 Z"/></g>
<g><path style="opacity:0.613" fill="#fefffe" d="M 323.5,304.5 C 324.5,304.5 325.5,304.5 326.5,304.5C 326.5,308.5 326.5,312.5 326.5,316.5C 325.5,316.5 324.5,316.5 323.5,316.5C 323.5,312.5 323.5,308.5 323.5,304.5 Z"/></g>
<g><path style="opacity:0.617" fill="#fefffe" d="M 428.5,304.5 C 430.833,305.833 433.167,305.833 435.5,304.5C 435.5,305.5 435.5,306.5 435.5,307.5C 434.178,307.33 433.011,307.663 432,308.5C 431.503,311.146 431.336,313.813 431.5,316.5C 430.5,316.5 429.5,316.5 428.5,316.5C 428.5,312.5 428.5,308.5 428.5,304.5 Z"/></g>
</svg>
